<svg width="587" height="565" viewBox="0 0 587 565" fill="none" preserveAspectRatio="none" xmlns="http://www.w3.org/2000/svg">
<g filter="url(#filter0_d_412_7556)">
<path fill-rule="evenodd" clip-rule="evenodd" d="M295.934 0C337.686 0 374.409 18.6685 395.606 46.9037C404.475 45.0722 413.729 44.1025 423.245 44.1025C488.879 44.1025 542.087 90.2366 542.087 147.146C542.087 174.465 529.826 199.3 509.814 217.742C523.244 230.133 531.581 247.43 531.581 266.567C531.581 284.912 523.919 301.566 511.455 313.829C513.204 317.832 514.591 322.038 515.574 326.4C516.315 326.398 517.059 326.41 517.805 326.434C554.049 327.627 582.501 359.131 581.353 396.8C580.206 434.47 549.894 464.04 513.65 462.847C511.878 462.789 510.125 462.658 508.393 462.458C493.864 502.609 455.986 530.59 412.436 529.157C389.207 528.393 368.098 519.383 351.626 504.916C330.95 518.16 305.091 525.625 277.247 524.708C267.917 524.401 258.866 523.17 250.209 521.119C227.734 542.901 194.616 556.127 158.082 554.924C92.4802 552.766 40.7043 504.905 42.437 448.024C43.2688 420.719 56.28 396.299 76.8425 378.525C63.7971 365.698 55.991 348.136 56.5737 329.008C57.0641 312.911 63.4169 298.31 73.6435 286.969C73.3751 286.077 73.1238 285.178 72.89 284.271C72.1492 284.296 71.4053 284.309 70.6585 284.309C34.3963 284.309 5 253.757 5 216.069C5 181.58 29.6175 153.066 61.5863 148.474C61.5809 148.032 61.5782 147.589 61.5782 147.146C61.5782 90.2366 105.967 44.1025 160.723 44.1025C172.394 44.1025 183.594 46.1985 193.993 50.048C214.773 20.0628 252.651 0 295.934 0Z" fill="white"/>
</g>
<defs>
<filter id="filter0_d_412_7556" x="0.0999775" y="0" width="586.187" height="564.8" filterUnits="userSpaceOnUse" color-interpolation-filters="sRGB">
<feFlood flood-opacity="0" result="BackgroundImageFix"/>
<feColorMatrix in="SourceAlpha" type="matrix" values="0 0 0 0 0 0 0 0 0 0 0 0 0 0 0 0 0 0 127 0" result="hardAlpha"/>
<feOffset dy="4.90002"/>
<feGaussianBlur stdDeviation="2.45001"/>
<feComposite in2="hardAlpha" operator="out"/>
<feColorMatrix type="matrix" values="0 0 0 0 0 0 0 0 0 0 0 0 0 0 0 0 0 0 0.25 0"/>
<feBlend mode="normal" in2="BackgroundImageFix" result="effect1_dropShadow_412_7556"/>
<feBlend mode="normal" in="SourceGraphic" in2="effect1_dropShadow_412_7556" result="shape"/>
</filter>
</defs>
</svg>
