<svg width="934" height="210" viewBox="0 0 934 210" fill="none" xmlns="http://www.w3.org/2000/svg">
<path d="M5.2597 5.98047C2.36709 3.19782 0 0.696757 0 0.423475C0 -1.30756 10.1721 2.63465 13.443 5.6332C15.1124 7.16343 15.2641 7.17551 17.2182 5.93517C21.7448 3.06269 26.2562 1.32259 30.0133 1.001C32.1932 0.814531 33.966 0.958718 33.9524 1.32108C33.9389 1.6842 31.2335 3.80855 27.9407 6.04161C21.6058 10.3386 19.9054 11.8938 18.5486 14.6311C17.9929 15.7522 16.8958 16.4037 15.3019 16.5585C13.1409 16.7691 12.7725 16.4988 11.7071 13.9162C11.054 12.3347 8.15231 8.76311 5.2597 5.98047Z" fill="#B33C56"/>
<path d="M518.212 35.7697C523.088 31.1647 527.996 28.2658 535.307 25.6741C538.436 24.5652 541.087 23.8971 541.199 24.1892C541.312 24.4821 536.675 29.4065 530.895 35.1326C525.115 40.8587 519.776 46.6754 519.031 48.0584C517.434 51.0245 514.975 52.5336 512.842 51.8571C512 51.5899 510.346 49.8891 509.165 48.0772C507.169 45.0153 501.366 39.3451 490.39 29.7349C485.253 25.2363 485.794 24.9343 494.128 27.6543C501.691 30.1229 504.914 31.8124 510.067 36.009L514.306 39.4606L518.212 35.7697Z" fill="#B33C56"/>
<path d="M202.256 41.5124C209.72 34.1421 218.223 29.8021 227.648 28.5527C228.894 28.3873 230.083 28.2062 230.291 28.1503C230.499 28.0944 231.123 28.3368 231.679 28.6893C232.409 29.1513 230.73 30.7971 225.638 34.6124C221.76 37.5181 217.525 40.4397 216.225 41.1048C212.235 43.1468 205.345 49.9887 201.666 55.5631C197.925 61.2318 196.062 62.2487 193.061 60.264C192.15 59.6623 190.809 57.4609 190.079 55.3721C188.904 52.0051 187.834 50.8403 180.641 45.0968C169.558 36.2453 165.695 32.7206 166.354 32.0616C167.124 31.2915 179.152 35.2549 184.357 37.9945C186.709 39.2326 190.385 41.8272 192.526 43.7606L196.419 47.2763L202.256 41.5124Z" fill="#B33C56"/>
<path d="M83.6002 188.664C78.1729 180.584 65.6239 165.329 59.3592 159.194C56.0732 155.976 53.8315 153.343 54.3781 153.343C57.2609 153.343 71.7398 162.949 79.658 170.114C84.0426 174.082 90.971 183.481 94.2283 189.878L96.4942 194.33L98.4196 192.405C104.83 185.996 114.195 179.717 122.814 176.05C130.567 172.751 152.521 168.822 152.521 170.733C152.521 171.349 137.352 178.925 126.471 183.744C115.257 188.71 105.412 196.368 99.0727 205.055C97.5581 207.131 95.9679 209.08 95.5391 209.385C92.7665 211.357 89.0962 208.323 89.0962 204.06C89.0962 199.516 87.0613 193.815 83.6002 188.664Z" fill="#B33C56"/>
<path d="M553.669 189.799C550.333 186.391 547.749 183.456 547.927 183.277C548.586 182.619 553.94 184.656 557.606 186.96C559.683 188.266 562.67 190.765 564.246 192.515L567.111 195.696L569.455 193.725C572.523 191.144 579.222 187.792 584.359 186.267C589.159 184.842 588.941 184.869 588.941 185.701C588.941 186.059 586.575 188.112 583.682 190.262C576.028 195.952 570.233 201.453 568.873 204.318C568.219 205.698 567.15 207.03 566.499 207.28C564.958 207.871 562.519 205.639 562.498 203.617C562.464 200.363 559.556 195.812 553.669 189.799Z" fill="#B33C56"/>
<path d="M896.691 203.73C895.275 199.898 890.266 192.581 885.775 187.784L883.034 184.857L886.287 185.346C892.203 186.238 899.875 191.219 903.069 196.244L904.187 198.001L907.993 196.027C910.086 194.941 913.62 193.572 915.846 192.985C920.062 191.874 934 190.575 934 191.294C934 191.693 926.895 195.677 915.124 201.879C912.009 203.519 908.345 205.84 906.98 207.035C905.307 208.501 903.679 209.207 901.977 209.207C899.062 209.207 898.5 208.625 896.691 203.73Z" fill="#B33C56"/>
</svg>
