<svg width="122" height="78" viewBox="0 0 122 78" fill="none" xmlns="http://www.w3.org/2000/svg">
<path d="M76.7838 63.6338C75.2604 65.0404 72.8027 65.7088 69.4057 65.7161L67.9757 65.7195L68.0275 48.2584L69.4432 48.265C72.7799 48.2577 75.2402 48.9569 76.8386 50.424C78.3609 51.7695 79.127 54.0309 79.1288 57.0593C79.1358 60.0891 78.3734 62.2536 76.7838 63.6338ZM108.752 60.9836C108.202 59.9462 107.537 59.0886 106.752 58.3547C105.529 57.3892 103.084 56.6247 99.4983 56.0687L99.1062 55.9936C97.4836 55.7078 96.3501 55.407 95.7012 54.9636C95.114 54.5726 94.7418 53.9959 94.6507 53.2292C94.5599 52.4685 94.8311 51.7316 95.4047 51.1575C95.9801 50.5974 96.8134 50.2863 97.8496 50.1905C98.8126 50.0749 99.8492 50.1858 100.963 50.4811C102.013 50.7617 103.06 51.321 104.111 52.0222L106.091 45.6067C104.649 44.7741 103.058 44.2494 101.52 43.9327C99.9113 43.6628 98.2207 43.5759 96.5151 43.7633C93.3074 44.1386 90.836 45.3773 89.0403 47.5411C88.0167 48.6937 87.3579 50.0086 87.0588 51.3984C86.8089 50.7893 86.5951 50.2141 86.3173 49.6312C85.273 47.3901 83.7614 45.6564 81.7644 44.2019C80.2399 43.1458 78.4461 42.3751 76.4487 41.9034C74.3904 41.4523 70.9549 41.2339 66.0481 41.175L59.503 41.1846L59.4751 72.8349L66.018 72.8264L67.4433 72.8261C71.5857 72.8169 74.616 72.614 76.5241 72.0715C78.5012 71.675 80.2102 70.9145 81.7328 69.8496C83.7824 68.4404 85.2885 66.7159 86.3316 64.4649C87.18 62.7327 87.6525 60.668 87.8238 58.5554C88.2188 59.3092 88.7016 59.8951 89.353 60.4529C90.7732 61.597 93.0509 62.4576 96.184 62.9175C98.5312 63.2891 99.977 63.6809 100.716 64.2263C101.39 64.7142 101.78 65.5015 101.945 66.509C102.041 67.452 101.759 68.2927 101.045 68.9695C100.376 69.7148 99.5034 70.0996 98.3713 70.2145C97.1364 70.3154 95.8904 70.1236 94.5757 69.5539C93.2563 68.9868 91.8486 68.0375 90.4223 66.7229L87.3038 73.5397C89.1142 74.8849 90.9896 75.899 92.8775 76.4013C94.7032 76.9566 96.7109 77.137 98.9467 76.9282C102.551 76.5379 105.377 75.2004 107.285 72.927C109.262 70.6509 110.092 67.8177 109.709 64.5337C109.536 63.2431 109.233 62.0253 108.752 60.9836Z" fill="white"/>
<path d="M46.8413 43.1191L46.9917 46.051L39.3637 45.5838L28.5921 59.2528L29.4962 44.9377L21.0513 44.3991L19.0625 75.8842L27.5059 76.4516L28.4079 62.2955L37.662 77.0601L48.2865 77.775L36.7761 60.7796L47.165 48.6894L48.562 74.6348L57.1875 74.1661L55.4315 42.7L46.8413 43.1191Z" fill="white"/>
<path d="M105.793 10.9482C105.782 11.0266 105.699 11.1803 105.607 11.2998C105.036 12.294 104.665 13.1632 104.482 13.9446C104.277 12.9935 103.95 12.0718 103.51 11.2017C103.422 11.0993 103.341 10.9994 103.33 10.9195L98.6598 1.71677L87.3852 1.52497L92.1379 9.07458L84.2663 8.33974L79.8182 15.173C79.7405 15.2638 79.7214 15.2773 79.6374 15.3961C79.0703 16.2152 78.6852 16.9624 78.4882 17.6147C78.3295 16.8857 78.1126 16.0266 77.7182 15.0808L77.642 14.9783L74.585 7.42147L64.3642 6.43999L73.4807 22.2021L60.2375 37.3547L69.9347 38.293L76.2435 29.5828C76.4593 29.237 76.7273 28.8541 76.9243 28.4593C77.1795 28.0273 77.3911 27.5717 77.5562 27.099C77.5842 27.5705 77.6803 27.9998 77.8567 28.4622C77.973 28.9279 78.156 29.3249 78.3553 29.7779L82.8119 39.4895L92.5039 40.4125L82.4889 23.2105L93.1866 10.7495L99.6529 21.0285L99.4036 37.2334L108.818 37.3736L109.134 21.1923L122 2.08546L110.72 1.91909L105.793 10.9482Z" fill="white"/>
<path d="M52.5154 28.2494C50.9725 30.0433 49.0218 30.931 46.6638 30.9978C44.2197 31.0115 42.2309 30.161 40.6396 28.4505C39.1132 26.729 38.3399 24.4902 38.2614 21.8023C38.2424 19.1362 38.9907 16.9229 40.5054 15.1131C42.0325 13.338 43.9872 12.4005 46.3599 12.3794C48.7028 12.3643 50.6835 13.2188 52.2928 14.9529C53.8735 16.7258 54.6724 18.914 54.7593 21.5705C54.7777 24.244 54.0275 26.4414 52.5154 28.2494ZM19.8268 17.8192C18.8273 18.7726 17.1788 19.3931 14.8109 19.6799L12.7547 19.966L11.3988 9.30726L13.5837 9.02267C16.0176 8.71335 17.7427 8.91673 18.8772 9.669C20.0058 10.3471 20.727 11.7479 20.9565 13.767C21.2198 15.4963 20.8205 16.845 19.8268 17.8192ZM63.278 21.4579C63.2648 19.1808 62.7973 17.0846 61.9386 15.0652C61.0817 13.0631 59.8515 11.306 58.243 9.779C56.6385 8.24309 54.8301 7.04272 52.7486 6.26757C50.6667 5.43742 48.4986 5.0491 46.2444 5.07974C44.0033 5.13142 41.8888 5.54446 39.8252 6.42444C37.7965 7.31033 35.9914 8.52325 34.4515 10.1193C33.3798 11.1927 32.4599 12.4094 31.7176 13.7352C31.7891 12.8054 31.7151 11.8479 31.6098 10.8852C31.3323 8.80194 30.7383 6.97332 29.7113 5.37356C28.6934 3.75681 27.4295 2.44829 25.8291 1.5672C24.413 0.729668 22.8045 0.252762 20.9965 0.068943C19.1338 -0.120049 16.004 0.0803871 11.4813 0.660271L0 2.11645L5.16698 42.7L15.4577 41.3498L13.4341 25.4788L24.7294 40.1789L37.1494 38.5522L24.0856 23.6453C26.628 22.7022 28.5207 21.352 29.8356 19.5455C29.7377 20.3063 29.6603 21.1386 29.668 21.9215C29.7399 24.1938 30.1502 26.2945 31.0672 28.2829C31.9285 30.2791 33.1685 32.0487 34.7862 33.5924C36.3856 35.1238 38.1918 36.3117 40.2674 37.1067C42.3402 37.8996 44.5104 38.3116 46.7408 38.2436C48.9584 38.2359 51.1125 37.8236 53.116 36.8986C55.1883 36.0411 56.9868 34.8045 58.5789 33.259C60.1698 31.6574 61.3215 29.8406 62.1472 27.8481C62.9799 25.842 63.3535 23.7384 63.278 21.4579Z" fill="white"/>
</svg>
