<svg width="296" height="297" viewBox="0 0 296 297" fill="none" xmlns="http://www.w3.org/2000/svg">
<path d="M83.2802 14.9825C100.495 6.73254 113.48 3.14854 135.344 0.613541C154.57 -1.61446 181.816 2.35954 202.156 10.3585C249.658 29.0405 282.861 69.0755 293.475 120.467C296.348 134.376 296.129 163.803 293.045 178.204C287.818 202.611 277.097 224.974 261.759 243.465C239.929 269.783 209.217 287.45 172.844 294.615C159.969 297.15 134.461 296.917 120.757 294.137C105.43 291.029 96.0272 287.765 81.3442 280.456C65.9642 272.801 54.6132 264.535 41.4952 251.438C19.1152 229.095 4.22818 197.789 0.706176 165.667C-0.801824 151.907 0.20018 128.937 2.81018 117.467C6.00918 103.404 8.50216 96.5345 15.8762 81.4665C30.1622 52.2755 53.5032 29.2525 83.2802 14.9825Z" fill="#FFF8BA"/>
</svg>
