<svg width="328" height="427" viewBox="0 0 328 427" fill="none" xmlns="http://www.w3.org/2000/svg">
<path d="M89 426.885L89.0777 213.848L89.1555 0.810547L95.6269 30.9887C99.1869 47.5867 101.958 61.3142 101.786 61.4942C101.614 61.6743 99.6064 60.8682 97.3241 59.704C95.0408 58.5388 92.8229 57.5864 92.3953 57.5864C91.9666 57.5864 94.4239 60.4641 97.856 63.9801L104.095 70.3738L109.859 98.506C113.028 113.979 115.616 127.221 115.609 127.934C115.602 128.811 113.954 128.397 110.517 126.656C107.723 125.24 105.088 124.081 104.662 124.081C104.236 124.081 107.097 127.314 111.019 131.266L118.149 138.452L123.914 166.559C127.084 182.019 129.559 194.667 129.415 194.667C129.27 194.667 125.617 193.056 121.295 191.086C116.974 189.117 113.15 187.506 112.798 187.506C112.445 187.506 116.728 192.113 122.317 197.744L132.477 207.982L136.753 228.689C139.105 240.078 143.594 261.772 146.727 276.897C149.862 292.021 152.425 304.542 152.425 304.721C152.425 304.9 146.556 302.257 139.382 298.846C132.208 295.436 123.371 291.295 119.744 289.643C111.733 285.996 110.439 284.413 136.907 310.626C147.785 321.399 157.124 331.019 157.661 332.004C158.197 332.989 161.168 345.879 164.261 360.648C167.355 375.417 171.712 396.188 173.943 406.806C176.174 417.425 178 426.287 178 426.499C178 426.711 157.975 426.885 133.5 426.885H89Z" fill="#5D7774"/>
<path d="M89 426.885L88.9223 213.848L88.8445 0.810547L82.3731 30.9887C78.8131 47.5867 76.0418 61.3142 76.2136 61.4942C76.3855 61.6743 78.3936 60.8682 80.6759 59.704C82.9592 58.5388 85.1771 57.5864 85.6047 57.5864C86.0334 57.5864 83.5761 60.4641 80.144 63.9801L73.9048 70.3738L68.1412 98.506C64.972 113.979 62.3839 127.221 62.3911 127.934C62.3982 128.811 64.0462 128.397 67.4835 126.656C70.2772 125.24 72.9125 124.081 73.338 124.081C73.7636 124.081 70.9033 127.314 66.9812 131.266L59.8509 138.452L54.0864 166.559C50.9162 182.019 48.4405 194.667 48.5848 194.667C48.73 194.667 52.3832 193.056 56.7053 191.086C61.0264 189.117 64.8503 187.506 65.2022 187.506C65.5551 187.506 61.2719 192.113 55.6833 197.744L45.523 207.982L41.2469 228.689C38.8951 240.078 34.4062 261.772 31.2728 276.897C28.1383 292.021 25.5747 304.542 25.5747 304.721C25.5747 304.9 31.4436 302.257 38.6178 298.846C45.792 295.436 54.6286 291.295 58.2561 289.643C66.2672 285.996 67.5612 284.413 41.0934 310.626C30.215 321.399 20.8761 331.019 20.3391 332.004C19.803 332.989 16.8322 345.879 13.7387 360.648C10.6452 375.417 6.28831 396.188 4.05717 406.806C1.82603 417.425 -7.62939e-06 426.287 -7.62939e-06 426.499C-7.62939e-06 426.711 20.025 426.885 44.5 426.885H89Z" fill="#A0C1AC"/>
<path d="M239 426.885L239.078 213.848L239.155 0.810547L245.627 30.9887C249.187 47.5867 251.958 61.3142 251.786 61.4942C251.614 61.6743 249.606 60.8682 247.324 59.704C245.041 58.5388 242.823 57.5864 242.395 57.5864C241.967 57.5864 244.424 60.4641 247.856 63.9801L254.095 70.3738L259.859 98.506C263.028 113.979 265.616 127.221 265.609 127.934C265.602 128.811 263.954 128.397 260.517 126.656C257.723 125.24 255.088 124.081 254.662 124.081C254.236 124.081 257.097 127.314 261.019 131.266L268.149 138.452L273.914 166.559C277.084 182.019 279.559 194.667 279.415 194.667C279.27 194.667 275.617 193.056 271.295 191.086C266.974 189.117 263.15 187.506 262.798 187.506C262.445 187.506 266.728 192.113 272.317 197.744L282.477 207.982L286.753 228.689C289.105 240.078 293.594 261.772 296.727 276.897C299.862 292.021 302.425 304.542 302.425 304.721C302.425 304.9 296.556 302.257 289.382 298.846C282.208 295.436 273.371 291.295 269.744 289.643C261.733 285.996 260.439 284.413 286.907 310.626C297.785 321.399 307.124 331.019 307.661 332.004C308.197 332.989 311.168 345.879 314.261 360.648C317.355 375.417 321.712 396.188 323.943 406.806C326.174 417.425 328 426.287 328 426.499C328 426.711 307.975 426.885 283.5 426.885H239Z" fill="#5D7774"/>
<path d="M239 426.885L238.922 213.848L238.845 0.810547L232.373 30.9887C228.813 47.5867 226.042 61.3142 226.214 61.4942C226.386 61.6743 228.394 60.8682 230.676 59.704C232.959 58.5388 235.177 57.5864 235.605 57.5864C236.033 57.5864 233.576 60.4641 230.144 63.9801L223.905 70.3738L218.141 98.506C214.972 113.979 212.384 127.221 212.391 127.934C212.398 128.811 214.046 128.397 217.483 126.656C220.277 125.24 222.912 124.081 223.338 124.081C223.764 124.081 220.903 127.314 216.981 131.266L209.851 138.452L204.086 166.559C200.916 182.019 198.441 194.667 198.585 194.667C198.73 194.667 202.383 193.056 206.705 191.086C211.026 189.117 214.85 187.506 215.202 187.506C215.555 187.506 211.272 192.113 205.683 197.744L195.523 207.982L191.247 228.689C188.895 240.078 184.406 261.772 181.273 276.897C178.138 292.021 175.575 304.542 175.575 304.721C175.575 304.9 181.444 302.257 188.618 298.846C195.792 295.436 204.629 291.295 208.256 289.643C216.267 285.996 217.561 284.413 191.093 310.626C180.215 321.399 170.876 331.019 170.339 332.004C169.803 332.989 166.832 345.879 163.739 360.648C160.645 375.417 156.288 396.188 154.057 406.806C151.826 417.425 150 426.287 150 426.499C150 426.711 170.025 426.885 194.5 426.885H239Z" fill="#A0C1AC"/>
</svg>
