<svg width="637" height="499" viewBox="0 0 637 499" fill="none" xmlns="http://www.w3.org/2000/svg">
<path d="M104 498.5L104.091 249.558L104.182 0.615234L111.744 35.8796C115.904 55.275 119.142 71.3161 118.941 71.5265C118.741 71.7369 116.394 70.7949 113.727 69.4346C111.059 68.073 108.467 66.9601 107.968 66.9601C107.467 66.9601 110.338 70.3227 114.349 74.4313L121.639 81.9026L128.374 114.776C132.078 132.857 135.102 148.331 135.094 149.164C135.085 150.189 133.159 149.705 129.143 147.67C125.878 146.016 122.799 144.661 122.302 144.661C121.804 144.661 125.147 148.44 129.73 153.058L138.062 161.454L144.798 194.299C148.502 212.364 151.395 227.144 151.227 227.144C151.057 227.144 146.788 225.261 141.738 222.96C136.688 220.659 132.22 218.776 131.809 218.776C131.396 218.776 136.401 224.16 142.932 230.74L154.805 242.703L159.801 266.901C162.55 280.209 167.795 305.559 171.457 323.233C175.119 340.906 178.115 355.537 178.115 355.747C178.115 355.956 171.257 352.867 162.874 348.881C154.49 344.897 144.164 340.058 139.925 338.128C130.564 333.866 129.052 332.015 159.981 362.646C172.693 375.235 183.605 386.477 184.233 387.628C184.859 388.779 188.331 403.841 191.946 421.099C195.561 438.357 200.652 462.63 203.259 475.037C205.866 487.445 208 497.801 208 498.048C208 498.297 184.6 498.5 156 498.5H104Z" fill="#5D7774"/>
<path d="M104 498.5L103.909 249.558L103.818 0.615234L96.2562 35.8796C92.0962 55.275 88.8578 71.3161 89.0586 71.5265C89.2595 71.7369 91.606 70.7949 94.273 69.4346C96.9411 68.073 99.5328 66.9601 100.032 66.9601C100.533 66.9601 97.662 70.3227 93.6514 74.4313L86.3607 81.9026L79.6257 114.776C75.9224 132.857 72.898 148.331 72.9064 149.164C72.9148 150.189 74.8405 149.705 78.8571 147.67C82.1217 146.016 85.2011 144.661 85.6984 144.661C86.1957 144.661 82.8533 148.44 78.2702 153.058L69.9382 161.454L63.2021 194.299C59.4975 212.364 56.6047 227.144 56.7732 227.144C56.943 227.144 61.2118 225.261 66.2624 222.96C71.3118 220.659 75.7801 218.776 76.1914 218.776C76.6038 218.776 71.5986 224.16 65.0681 230.74L53.1954 242.703L48.1986 266.901C45.4504 280.209 40.205 305.559 36.5435 323.233C32.8807 340.906 29.8851 355.537 29.8851 355.747C29.8851 355.956 36.7431 352.867 45.1264 348.881C53.5098 344.897 63.8357 340.058 68.0746 338.128C77.4358 333.866 78.9479 332.015 48.0193 362.646C35.3074 375.235 24.3946 386.477 23.767 387.628C23.1406 388.779 19.6691 403.841 16.0542 421.099C12.4394 438.357 7.34814 462.63 4.74097 475.037C2.1338 487.445 0 497.801 0 498.048C0 498.297 23.4 498.5 52 498.5H104Z" fill="#A0C1AC"/>
<path d="M533 498.5L533.091 249.558L533.182 0.615234L540.744 35.8796C544.904 55.275 548.142 71.3161 547.941 71.5265C547.741 71.7369 545.394 70.7949 542.727 69.4346C540.059 68.073 537.467 66.9601 536.968 66.9601C536.467 66.9601 539.338 70.3227 543.349 74.4313L550.639 81.9026L557.374 114.776C561.078 132.857 564.102 148.331 564.094 149.164C564.085 150.189 562.159 149.705 558.143 147.67C554.878 146.016 551.799 144.661 551.302 144.661C550.804 144.661 554.147 148.44 558.73 153.058L567.062 161.454L573.798 194.299C577.502 212.364 580.395 227.144 580.227 227.144C580.057 227.144 575.788 225.261 570.738 222.96C565.688 220.659 561.22 218.776 560.809 218.776C560.396 218.776 565.401 224.16 571.932 230.74L583.805 242.703L588.801 266.901C591.55 280.209 596.795 305.559 600.457 323.233C604.119 340.906 607.115 355.537 607.115 355.747C607.115 355.956 600.257 352.867 591.874 348.881C583.49 344.897 573.164 340.058 568.925 338.128C559.564 333.866 558.052 332.015 588.981 362.646C601.693 375.235 612.605 386.477 613.233 387.628C613.859 388.779 617.331 403.841 620.946 421.099C624.561 438.357 629.652 462.63 632.259 475.037C634.866 487.445 637 497.801 637 498.048C637 498.297 613.6 498.5 585 498.5H533Z" fill="#5D7774"/>
<path d="M533 498.5L532.909 249.558L532.818 0.615234L525.256 35.8796C521.096 55.275 517.858 71.3161 518.059 71.5265C518.259 71.7369 520.606 70.7949 523.273 69.4346C525.941 68.073 528.533 66.9601 529.032 66.9601C529.533 66.9601 526.662 70.3227 522.651 74.4313L515.361 81.9026L508.626 114.776C504.922 132.857 501.898 148.331 501.906 149.164C501.915 150.189 503.841 149.705 507.857 147.67C511.122 146.016 514.201 144.661 514.698 144.661C515.196 144.661 511.853 148.44 507.27 153.058L498.938 161.454L492.202 194.299C488.498 212.364 485.605 227.144 485.773 227.144C485.943 227.144 490.212 225.261 495.262 222.96C500.312 220.659 504.78 218.776 505.191 218.776C505.604 218.776 500.599 224.16 494.068 230.74L482.195 242.703L477.199 266.901C474.45 280.209 469.205 305.559 465.543 323.233C461.881 340.906 458.885 355.537 458.885 355.747C458.885 355.956 465.743 352.867 474.126 348.881C482.51 344.897 492.836 340.058 497.075 338.128C506.436 333.866 507.948 332.015 477.019 362.646C464.307 375.235 453.395 386.477 452.767 387.628C452.141 388.779 448.669 403.841 445.054 421.099C441.439 438.357 436.348 462.63 433.741 475.037C431.134 487.445 429 497.801 429 498.048C429 498.297 452.4 498.5 481 498.5H533Z" fill="#A0C1AC"/>
</svg>
