<svg width="312" height="842" viewBox="0 0 312 842" fill="none" xmlns="http://www.w3.org/2000/svg">
<g clip-path="url(#clip0_50_910)">
<path d="M199.746 842.109L199.918 370.555L200.091 -101L214.434 -34.2011C222.324 2.53822 228.466 32.9238 228.085 33.3223C227.704 33.7208 223.253 31.9365 218.195 29.3597C213.135 26.7805 208.219 24.6724 207.271 24.6724C206.321 24.6724 211.767 31.0421 219.374 38.8247L233.202 52.977L245.976 115.247C253 149.496 258.736 178.808 258.721 180.386C258.705 182.327 255.052 181.41 247.434 177.556C241.242 174.422 235.402 171.856 234.458 171.856C233.515 171.856 239.854 179.014 248.547 187.761L264.35 203.666L277.127 265.882C284.153 300.101 289.64 328.098 289.32 328.098C288.998 328.098 280.902 324.531 271.322 320.172C261.745 315.814 253.27 312.247 252.49 312.247C251.708 312.247 261.201 322.446 273.587 334.909L296.106 357.571L305.583 403.406C310.796 428.615 320.745 476.633 327.689 510.112C334.636 543.589 340.318 571.304 340.318 571.701C340.318 572.097 327.311 566.246 311.41 558.696C295.51 551.149 275.925 541.983 267.885 538.326C250.13 530.254 247.262 526.748 305.923 584.771C330.034 608.617 350.732 629.911 351.922 632.091C353.11 634.272 359.695 662.803 366.551 695.494C373.407 728.184 383.064 774.162 388.008 797.664C392.953 821.168 397.001 840.785 397.001 841.253C397.001 841.724 352.618 842.109 298.373 842.109H199.746Z" fill="#5D7774"/>
<path d="M199.746 842.109L199.574 370.555L199.402 -101L185.059 -34.2011C177.168 2.53822 171.026 32.9238 171.407 33.3223C171.788 33.7208 176.239 31.9365 181.297 29.3597C186.358 26.7806 191.273 24.6724 192.221 24.6724C193.171 24.6724 187.725 31.0421 180.118 38.8247L166.29 52.977L153.516 115.247C146.492 149.496 140.756 178.808 140.772 180.386C140.787 182.327 144.44 181.41 152.058 177.556C158.25 174.422 164.091 171.856 165.034 171.856C165.977 171.856 159.638 179.014 150.945 187.761L135.142 203.666L122.366 265.882C115.339 300.101 109.852 328.098 110.172 328.098C110.494 328.098 118.591 324.531 128.17 320.172C137.747 315.814 146.222 312.247 147.002 312.247C147.784 312.247 138.291 322.446 125.905 334.909L103.386 357.571L93.9089 403.406C88.6964 428.615 78.7475 476.633 71.8028 510.112C64.8558 543.589 59.174 571.304 59.174 571.701C59.174 572.097 72.1814 566.246 88.0819 558.696C103.982 551.149 123.567 541.983 131.607 538.326C149.362 530.254 152.23 526.748 93.5687 584.771C69.4583 608.617 48.7603 629.911 47.57 632.091C46.3819 634.272 39.7976 662.803 32.9413 695.494C26.0851 728.184 16.4287 774.162 11.4837 797.664C6.53876 821.168 2.49162 840.785 2.49162 841.253C2.49162 841.724 46.8739 842.109 101.119 842.109H199.746Z" fill="#A0C1AC"/>
</g>
<defs>
<clipPath id="clip0_50_910">
<rect width="312" height="842" fill="white"/>
</clipPath>
</defs>
</svg>
