<svg width="329" height="365" viewBox="0 0 329 365" fill="none" preserveAspectRatio="none" xmlns="http://www.w3.org/2000/svg">
<g filter="url(#filter0_d_111_3528)">
<path fill-rule="evenodd" clip-rule="evenodd" d="M165.812 0C189.034 0 209.458 9.99015 221.248 25.0997C226.18 24.1197 231.327 23.6008 236.619 23.6008C273.124 23.6008 302.717 48.2887 302.717 78.7429C302.717 93.3621 295.897 106.652 284.768 116.521C292.237 123.152 296.874 132.408 296.874 142.649C296.874 148.631 295.291 154.278 292.487 159.261C306.638 168.439 316 184.376 316 202.5C316 216.029 310.783 228.339 302.252 237.529C315.763 243.231 325.048 256.807 324.557 272.342C323.918 292.5 307.059 308.324 286.901 307.686C285.916 307.655 284.941 307.585 283.978 307.477C275.897 328.964 254.83 343.937 230.608 343.17C217.689 342.761 205.948 337.94 196.787 330.198C185.287 337.286 170.905 341.28 155.419 340.79C150.229 340.625 145.196 339.966 140.381 338.869C127.881 350.525 109.461 357.603 89.1415 356.959C52.6552 355.804 23.8585 330.192 24.8222 299.753C25.2848 285.141 32.5214 272.073 43.9578 262.562C36.7021 255.698 32.3604 246.299 32.6845 236.064C32.8328 231.379 33.9457 226.931 35.845 222.871C22.5449 212.436 14 196.216 14 178C14 166.808 17.2255 156.37 22.7975 147.564C11.586 141.33 4 129.364 4 115.626C4 97.1695 17.6919 81.9111 35.4724 79.4537C35.4695 79.2171 35.468 78.9802 35.468 78.7429C35.468 48.2887 60.1559 23.6008 90.61 23.6008C97.1013 23.6008 103.331 24.7224 109.115 26.7825C120.672 10.7363 141.739 0 165.812 0Z" fill="white"/>
</g>
<defs>
<filter id="filter0_d_111_3528" x="0" y="0" width="328.575" height="365" filterUnits="userSpaceOnUse" color-interpolation-filters="sRGB">
<feFlood flood-opacity="0" result="BackgroundImageFix"/>
<feColorMatrix in="SourceAlpha" type="matrix" values="0 0 0 0 0 0 0 0 0 0 0 0 0 0 0 0 0 0 127 0" result="hardAlpha"/>
<feOffset dy="4"/>
<feGaussianBlur stdDeviation="2"/>
<feComposite in2="hardAlpha" operator="out"/>
<feColorMatrix type="matrix" values="0 0 0 0 0 0 0 0 0 0 0 0 0 0 0 0 0 0 0.25 0"/>
<feBlend mode="normal" in2="BackgroundImageFix" result="effect1_dropShadow_111_3528"/>
<feBlend mode="normal" in="SourceGraphic" in2="effect1_dropShadow_111_3528" result="shape"/>
</filter>
</defs>
</svg>
