<svg width="510" height="398" viewBox="0 0 510 398" fill="none" preserveAspectRatio="none" xmlns="http://www.w3.org/2000/svg">
<g filter="url(#filter0_d_56_2007)">
<path fill-rule="evenodd" clip-rule="evenodd" d="M141.365 342.669C161.099 369.835 195.286 387.797 234.155 387.797C274.449 387.797 309.712 368.494 329.057 339.643C338.738 343.347 349.165 345.364 360.03 345.364C411.005 345.364 452.328 300.975 452.328 246.219C452.328 245.793 452.326 245.367 452.321 244.941C482.082 240.523 505 213.088 505 179.904C505 143.642 477.634 114.246 443.875 114.246C443.18 114.246 442.488 114.258 441.798 114.283C434.814 86.2788 411.024 65.6584 382.75 65.6584C372.921 65.6584 363.634 68.1505 355.406 72.5786C333.865 38.7564 291.506 15.758 242.775 15.758C219.826 15.758 198.291 20.8585 179.677 29.7879C168.765 11.8519 149.907 0 128.472 0C94.7137 0 67.3472 29.3963 67.3472 65.6585C67.3472 66.1812 67.3529 66.7024 67.3642 67.2222C37.2766 73.7525 14.7802 99.9692 14.7802 131.317C14.7802 149.73 22.5415 166.372 35.0437 178.295C16.4145 196.038 5.00009 219.934 5.00009 246.219C5.00009 300.975 54.5334 345.364 115.636 345.364C124.494 345.364 133.109 344.431 141.365 342.669Z" fill="white"/>
</g>
<defs>
<filter id="filter0_d_56_2007" x="0.0999775" y="0" width="509.8" height="397.597" filterUnits="userSpaceOnUse" color-interpolation-filters="sRGB">
<feFlood flood-opacity="0" result="BackgroundImageFix"/>
<feColorMatrix in="SourceAlpha" type="matrix" values="0 0 0 0 0 0 0 0 0 0 0 0 0 0 0 0 0 0 127 0" result="hardAlpha"/>
<feOffset dy="4.90002"/>
<feGaussianBlur stdDeviation="2.45001"/>
<feComposite in2="hardAlpha" operator="out"/>
<feColorMatrix type="matrix" values="0 0 0 0 0 0 0 0 0 0 0 0 0 0 0 0 0 0 0.25 0"/>
<feBlend mode="normal" in2="BackgroundImageFix" result="effect1_dropShadow_56_2007"/>
<feBlend mode="normal" in="SourceGraphic" in2="effect1_dropShadow_56_2007" result="shape"/>
</filter>
</defs>
</svg>
