<svg width="734" height="158" viewBox="0 0 734 158" fill="none" xmlns="http://www.w3.org/2000/svg">
<path d="M140 156H0C1.65926 152.975 11.0617 149.469 20.0494 150.844C21.0864 147.406 23.5062 142.25 32.4938 139.156C38.7056 137.018 46.321 140.188 49.4321 142.25L49.4452 142.215C51.5279 136.692 56.6911 123 72.5926 123C87.4568 123 93.9095 134 96.0988 140.875C104.395 135.925 117.531 142.25 117.531 149.469C123.062 145.894 127.44 150.042 128.938 152.562C133.086 152.288 138.041 154.74 140 156Z" fill="white"/>
<path d="M496 58H249C251.927 52.6833 268.516 46.5208 284.373 48.9375C286.202 42.8958 290.472 33.8333 306.328 28.3958C317.288 24.6378 330.723 30.2083 336.212 33.8333L336.236 33.7721C339.91 24.0651 349.019 0 377.074 0C403.299 0 414.683 19.3333 418.546 31.4167C433.183 22.7167 456.358 33.8333 456.358 46.5208C466.116 40.2375 473.841 47.5278 476.484 51.9583C483.802 51.475 492.544 55.7847 496 58Z" fill="white"/>
<path d="M734 158H496C498.821 152.867 514.805 146.917 530.084 149.25C531.847 143.417 535.96 134.667 551.24 129.417C561.799 125.788 574.746 131.167 580.035 134.667L580.057 134.608C583.597 125.235 592.375 102 619.407 102C644.677 102 655.646 120.667 659.368 132.333C673.472 123.933 695.802 134.667 695.802 146.917C705.205 140.85 712.649 147.889 715.195 152.167C722.247 151.7 730.67 155.861 734 158Z" fill="white"/>
</svg>
