<svg width="1158" height="284" viewBox="0 0 1158 284" fill="none" xmlns="http://www.w3.org/2000/svg">
<path d="M202.5 227H0C2.4 222.6 16 217.5 29 219.5C30.5 214.5 34 207 47 202.5C55.9848 199.39 67 204 71.5 207L71.519 206.949C74.5314 198.916 81.9996 179 105 179C126.5 179 135.833 195 139 205C151 197.8 170 207 170 217.5C178 212.3 184.333 218.333 186.5 222C192.5 221.6 199.667 225.167 202.5 227Z" fill="white"/>
<path d="M813 84H455C459.243 76.3 483.286 67.375 506.269 70.875C508.921 62.125 515.109 49 538.091 41.125C553.976 35.6823 573.449 43.75 581.405 49L581.439 48.9114C586.764 34.8529 599.967 0 640.63 0C678.639 0 695.14 28 700.738 45.5C721.953 32.9 755.543 49 755.543 67.375C769.686 58.275 780.883 68.8333 784.714 75.25C795.321 74.55 807.991 80.7917 813 84Z" fill="white"/>
<path d="M1158 284H813C817.089 276.575 840.259 267.969 862.407 271.344C864.963 262.906 870.926 250.25 893.074 242.656C908.382 237.408 927.148 245.188 934.815 250.25L934.847 250.164C939.979 236.608 952.703 203 991.889 203C1028.52 203 1044.42 230 1049.81 246.875C1070.26 234.725 1102.63 250.25 1102.63 267.969C1116.26 259.194 1127.05 269.375 1130.74 275.562C1140.96 274.887 1153.17 280.906 1158 284Z" fill="white"/>
</svg>
