<svg width="289" height="257" viewBox="0 0 289 257" fill="none" xmlns="http://www.w3.org/2000/svg">
<path fill-rule="evenodd" clip-rule="evenodd" d="M0 153.92C6.95745 175.845 19.0503 196.167 34.9025 211.993C48.0205 225.09 59.3715 233.356 74.7515 241.011C89.4345 248.32 98.8374 251.584 114.164 254.692C127.868 257.472 153.376 257.705 166.251 255.17C202.624 248.005 233.337 230.338 255.167 204.02C270.505 185.529 281.226 163.166 286.453 138.759C289.537 124.358 289.755 94.9315 286.882 81.0225C280.205 48.6902 264.586 20.8529 242.09 0C244.004 5.83183 245.607 11.8451 246.882 18.0225C249.755 31.9315 249.537 61.3584 246.453 75.7595C241.226 100.166 230.505 122.529 215.167 141.02C193.337 167.338 162.624 185.005 126.251 192.17C113.376 194.705 87.8684 194.472 74.1644 191.692C58.8374 188.584 49.4345 185.32 34.7515 178.011C21.3943 171.363 11.0761 164.254 0 153.92Z" fill="url(#paint0_linear_50_708)"/>
<defs>
<linearGradient id="paint0_linear_50_708" x1="177" y1="165" x2="300.5" y2="323.5" gradientUnits="userSpaceOnUse">
<stop stop-color="#FFFAE0"/>
<stop offset="1" stop-color="#D2BAE6"/>
</linearGradient>
</defs>
</svg>
