<svg width="1074" height="519" viewBox="0 0 1074 519" fill="none" xmlns="http://www.w3.org/2000/svg">
<path fill-rule="evenodd" clip-rule="evenodd" d="M536.606 1.03769C533.645 2.24372 527.983 8.60552 523.106 16.2033C512.908 32.0905 491.97 76.8996 476.828 115.238C474.518 121.087 472.31 126.582 471.919 127.448C471.529 128.315 469.248 134.164 466.851 140.446C464.455 146.728 462.116 152.755 461.653 153.838C461.19 154.921 458.969 160.415 456.717 166.048C454.465 171.68 451.907 178.061 451.035 180.227C447.363 189.332 436.907 216.356 433.747 224.902C431.871 229.977 430.112 233.876 429.837 233.567C429.562 233.259 428.211 228.929 426.833 223.947C419.946 199.04 417.39 190.609 408.559 163.684C396.475 126.839 372.727 59.8584 367.868 48.9167C363.124 38.2341 358.027 31.7187 353.135 30.0818C347.535 28.2093 341.964 31.3957 336.945 39.3417C333.474 44.8385 320.459 70.5473 316.468 79.7899C314.692 83.9058 312.719 88.3369 312.084 89.6367C310.343 93.1996 303.245 110.282 303.245 110.908C303.245 111.209 302.742 112.573 302.126 113.938C298.771 121.38 278.241 177.688 274.63 189.352C273.032 194.512 269.738 204.209 261.273 228.673C254.646 247.822 246.377 272.535 236.298 303.312C231.58 317.718 227.489 329.501 227.206 329.497C226.923 329.493 225.417 325.505 223.859 320.635C220.638 310.568 202.852 258.695 198.136 245.61C196.417 240.844 193.974 233.754 192.705 229.855C191.436 225.955 189.76 220.993 188.979 218.826C188.199 216.66 186.181 210.811 184.493 205.829C171.254 166.731 167.786 157.694 163.303 150.613C159.175 144.092 153.78 142.497 148.508 146.24C144.407 149.151 137.733 161.223 127.972 183.378C117.935 206.162 108.382 227.009 96.7464 251.518C95.6897 253.744 94.3038 256.717 92.7366 260.111L92.8506 260.455L0.96582 518.563L537.376 518.366L1073.84 518.169L1073.85 512.052L1020.61 304.533C1020.16 303.202 1019.67 301.72 1019.17 300.161C1013.76 283.338 1004.46 256.688 1000.01 245.216C996.068 235.069 990.346 219.491 978.454 186.529C975.485 178.297 969.55 161.105 965.266 148.323C952.404 109.95 948.29 102.646 939.536 102.638C932.788 102.63 929.064 106.705 920.096 123.903C908.635 145.885 885.355 199.076 869.044 240.552C866.417 247.233 863.801 253.763 863.229 255.063C862.35 257.067 856.532 272.09 851.027 286.572C850.203 288.739 847.935 294.942 845.986 300.358L845.637 301.326C842.893 308.955 841.845 311.869 841.113 311.791C840.661 311.743 840.33 310.554 839.794 308.631L839.683 308.235C835.536 293.4 821.006 244.79 816.962 232.218C810.274 211.426 804.522 192.868 795.961 164.472C781.667 117.063 774.234 96.2419 769.778 91.131C765.627 86.3699 759.739 86.6566 755.015 91.851C748.733 98.7587 741.276 111.813 728.833 137.689C720.562 154.888 710.327 179.166 703.925 196.77C702.507 200.669 698.386 211.835 694.767 221.584C686.979 242.563 675.819 276.703 665.024 312.568C658.76 333.381 658.5 333.931 657.298 328.921C656.74 326.594 651.939 311.129 641.951 279.483C638.533 268.651 634.686 256.421 633.405 252.305C632.123 248.19 628.103 235.96 624.47 225.128C620.837 214.297 614.914 196.041 611.305 184.56C607.696 173.078 602.873 157.835 600.585 150.687C590.943 120.548 581.174 89.0238 576.054 71.5186C568.495 45.6735 560.351 21.9207 556.121 13.3761C550.777 2.58402 543.736 -1.86829 536.606 1.03769Z" fill="#D0D4E9"/>
</svg>
