<svg width="1121" height="524" viewBox="0 0 1121 524" fill="none" xmlns="http://www.w3.org/2000/svg">
<path d="M392.903 400.535L347.842 521.885H743.907L703.589 405.674L594.098 60.2037C572.358 0.912413 575.125 4.46989 562.476 2.09824C552.357 0.200917 536.915 27.3958 530.459 41.2305L483.816 155.07L392.903 400.535Z" fill="#B6BAD1"/>
<path d="M484.212 153.489C485.398 153.489 500.814 149.537 538.76 151.513C569.117 153.094 605.693 145.847 620.187 142.026M469.192 193.412C481.84 201.318 508.719 240.055 561.686 240.845C614.653 241.636 598.446 203.294 639.16 203.689M438.755 275.629C446.661 275.629 509.905 294.207 543.503 279.582C577.102 264.957 629.673 252.703 654.576 254.68M417.806 332.154C438.36 320.295 492.355 321.877 539.155 337.688C597.656 357.451 660.109 335.711 672.758 309.623M354.957 504.494C380.255 506.865 429.822 478.168 451.009 428.206C477.492 365.752 511.615 375.589 549.037 378.796C590.541 382.354 642.717 379.982 684.616 344.802M446.266 521.095C471.563 492.24 480.575 461.013 505.557 465.757C536.784 471.686 635.207 533.011 635.207 470.5C635.207 413.976 662.876 396.979 703.194 402.908" stroke="#979DC4" stroke-width="7"/>
<path d="M494.094 140.84C491.327 147.165 488.165 150.722 485.793 150.722C485.793 144.714 518.941 60.1327 542.317 19.0954C567.22 -18.6107 574.335 10.0041 579.078 16.7237C582.873 22.0995 604.375 92.7483 614.653 127.401C599.632 142.421 597.261 121.867 592.122 118.705C586.983 115.543 585.007 134.12 583.031 137.283C581.054 140.445 580.264 200.527 567.22 203.689C554.176 206.851 556.547 120.286 554.571 118.705C552.594 117.124 545.084 150.722 535.598 150.722C526.111 150.722 527.297 111.59 527.297 110.009C527.297 108.428 529.273 102.894 524.53 102.498C520.735 102.182 502.658 127.928 494.094 140.84Z" fill="#EEEEEE"/>
<path d="M812.733 420.315L773.158 521.806H1121L1085.59 424.613L989.431 135.678C970.338 86.0901 972.768 89.0654 961.659 87.0818C952.772 85.495 939.211 108.239 933.54 119.81L892.577 215.02L812.733 420.315Z" fill="#B6BAD1"/>
<path d="M901.446 202.968C899.002 208.236 896.208 211.199 894.113 211.199C894.113 206.194 923.049 133.408 944.049 101.556C964.149 71.0692 972.334 93.9836 976.524 99.5809C979.877 104.059 998.873 162.908 1007.95 191.773C994.683 204.285 992.588 187.163 988.048 184.529C983.509 181.895 981.763 197.37 980.017 200.004C978.271 202.638 977.572 252.685 966.049 255.319C954.525 257.954 956.62 185.846 954.874 184.529C953.128 183.212 946.493 211.199 938.112 211.199C929.732 211.199 930.779 178.603 930.779 177.286C930.779 175.969 932.525 171.359 928.335 171.03C924.983 170.766 909.012 192.212 901.446 202.968Z" fill="#EEEEEE"/>
<path d="M891.381 325.032C889.285 331.695 883.314 335.427 878.732 333.985C874.151 332.544 875.06 322.999 877.157 316.335C879.253 309.672 883.32 308.413 887.902 309.854C892.483 311.296 893.478 318.368 891.381 325.032Z" fill="#979DC4"/>
<path d="M943.16 364.472C941.341 370.253 936.161 373.491 932.187 372.24C928.212 370.989 929.001 362.709 930.82 356.928C932.639 351.147 936.167 350.055 940.141 351.305C944.116 352.556 944.979 358.691 943.16 364.472Z" fill="#979DC4"/>
<path d="M1003.97 287.313C1002.64 293.225 1005.49 298.627 1009.55 299.543C1013.62 300.458 1017.1 292.903 1018.43 286.991C1019.76 281.078 1017.26 278.361 1013.19 277.446C1009.13 276.53 1005.3 281.401 1003.97 287.313Z" fill="#979DC4"/>
<path d="M885.123 432.716C883.274 438.593 878.008 441.884 873.968 440.612C869.927 439.341 870.729 430.923 872.578 425.047C874.427 419.17 878.014 418.06 882.054 419.331C886.094 420.602 886.972 426.839 885.123 432.716Z" fill="#979DC4"/>
<path d="M1072.74 460.278C1072.4 465.451 1068.75 469.191 1065.2 468.958C1061.64 468.724 1060.62 461.683 1060.96 456.51C1061.3 451.337 1064.01 449.714 1067.57 449.948C1071.12 450.182 1073.08 455.105 1072.74 460.278Z" fill="#979DC4"/>
<path d="M943.114 474.981C942.785 479.988 938.579 483.565 934.429 483.292C930.28 483.02 928.995 476.184 929.324 471.176C929.653 466.169 932.793 464.631 936.942 464.904C941.092 465.177 943.443 469.973 943.114 474.981Z" fill="#979DC4"/>
<path d="M826.912 481.801C825.731 486.401 821.839 489.158 818.705 488.353C815.571 487.548 815.853 481.039 817.034 476.439C818.215 471.84 820.91 470.832 824.044 471.637C827.179 472.442 828.093 477.202 826.912 481.801Z" fill="#979DC4"/>
<path d="M1021.43 393.81C1019.31 400.528 1012.03 405.956 1007.41 404.503C1002.79 403.049 1003.71 393.427 1005.82 386.709C1007.94 379.991 1012.04 378.722 1016.66 380.175C1021.27 381.628 1023.54 387.092 1021.43 393.81Z" fill="#979DC4"/>
<path d="M39.5748 420.315L0 521.806H347.842L312.433 424.613L216.273 135.678C197.18 86.0901 199.61 89.0654 188.501 87.0818C179.614 85.495 166.052 108.239 160.382 119.81L119.419 215.02L39.5748 420.315Z" fill="#B6BAD1"/>
<path d="M128.286 202.968C125.842 208.236 123.048 211.199 120.953 211.199C120.953 206.194 155.253 123.631 170.889 101.556C192.483 71.0692 199.174 93.9835 203.364 99.5809C206.717 104.059 225.713 162.908 234.792 191.773C221.523 204.285 219.428 187.163 214.888 184.529C210.348 181.895 208.602 197.37 206.856 200.004C205.11 202.638 204.412 252.685 192.888 255.319C181.365 257.954 183.46 185.846 181.714 184.529C179.968 183.212 173.333 211.199 164.952 211.199C156.572 211.199 157.619 178.603 157.619 177.286C157.619 175.969 159.365 171.359 155.175 171.03C151.822 170.766 135.852 192.212 128.286 202.968Z" fill="#EEEEEE"/>
<path d="M125.301 282.268C124.985 283.216 120.953 295.839 118.977 302.031" stroke="#979DC4" stroke-width="10" stroke-linecap="round"/>
<path d="M170.363 321.4L173.13 304.403" stroke="#979DC4" stroke-width="10" stroke-linecap="round"/>
<path d="M231.234 273.572L235.187 290.964" stroke="#979DC4" stroke-width="10" stroke-linecap="round"/>
<path d="M259.301 389.388L266.02 408.361" stroke="#979DC4" stroke-width="10" stroke-linecap="round"/>
<path d="M217.795 343.932V358.162" stroke="#979DC4" stroke-width="10" stroke-linecap="round"/>
<path d="M135.578 351.441L129.254 371.205" stroke="#979DC4" stroke-width="10" stroke-linecap="round"/>
<path d="M180.641 392.945L178.27 409.942" stroke="#979DC4" stroke-width="10" stroke-linecap="round"/>
<path d="M222.539 428.125V449.865" stroke="#979DC4" stroke-width="10" stroke-linecap="round"/>
<path d="M289.734 461.328L294.478 481.092" stroke="#979DC4" stroke-width="10" stroke-linecap="round"/>
<path d="M90.1216 386.226L82.6113 403.618" stroke="#979DC4" stroke-width="10" stroke-linecap="round"/>
<path d="M135.578 446.703V469.234" stroke="#979DC4" stroke-width="10" stroke-linecap="round"/>
<path d="M179.85 475.953V490.974" stroke="#979DC4" stroke-width="10" stroke-linecap="round"/>
<path d="M64.8238 462.908L60.8711 476.743" stroke="#979DC4" stroke-width="10" stroke-linecap="round"/>
<path d="M242.699 497.298V507.18" stroke="#979DC4" stroke-width="10" stroke-linecap="round"/>
<path d="M100.793 494.926V507.575" stroke="#979DC4" stroke-width="10" stroke-linecap="round"/>
</svg>
