<svg fill="none" height="228" viewBox="0 0 490 228" width="490" xmlns="http://www.w3.org/2000/svg" xmlns:xlink="http://www.w3.org/1999/xlink"><clipPath id="a"><path d="m0 0h490v228h-490z"/></clipPath><g clip-path="url(#a)"><path clip-rule="evenodd" d="m1031.09 1.96519c0-.40213 2.21-1.086851 5.1-1.581083 7.14-1.222057 16.32.506819 24.89 4.688383 15.63 7.63221 27.07 21.38591 30.73 36.95281l.72 3.0376h-2.24-2.24l-.85-3.1751c-2.4-8.9757-6.36-15.748-13.16-22.5093-5.17-5.1434-10.77-8.7264-18.25-11.66987-4.7-1.84758-12.66-3.86174-18.77-4.75065l-1.72-.25007 1.93 1.52224c8.74 6.91375 14.09 21.84845 12.71 35.52195-.23 2.3492-.42 4.5049-.42 4.791 0 .3567-.57.5198-1.81.5198-1.78 0-1.81-.0208-1.56-1.0779.14-.593.36-3.1943.48-5.781.45-9.6613-1.88-17.7007-7.54-26.0669-2.79-4.12869-7.23-9.7953-7.67-9.7953-.18 0-.33-.16967-.33-.37661zm-144.655 5.22683c.019-1.96713.156-4.17174.306-4.89918l.271-1.322772.278 1.325932c.153.7294.405 4.03652.56 7.34877.155 3.31263.371 6.02293.479 6.02293s1.327-1.0582 2.71-2.3516c2.391-2.2364 3.366-2.7542 3.816-2.026.211.3398-2.191 4.1365-2.889 4.568-1.004.6201-.19.9877 2.244 1.0144 3.879.0427 6.026.4561 6.524 1.2557.626 1.008-.157 1.3612-3.663 1.6521-1.627.1352-3.438.3359-4.023.446l-1.064.2006 2.142 2.5249c2.289 2.698 2.497 3.1865 1.52 3.5615-.43.1646-1.636-.7698-3.893-3.0148l-3.27-3.2535-.125 6.7073c-.087 4.6989-.271 6.8538-.615 7.1963-.975.9732-1.335-.3551-1.562-5.7646l-.226-5.4075-1.598 1.9306c-3.004 3.6313-7.034 7.6138-7.704 7.6138-.368 0-.888-.2638-1.156-.5859-.605-.7294-.296-1.2256 3.383-5.4248 1.48-1.6893 3.287-3.7615 4.015-4.6053l1.324-1.534-2.108-.0086c-2.487-.0098-10.076-.9689-10.424-1.3173-.133-.1329-.161-.3226-.062-.4218.3-.2994 6.604-1.3086 9.989-1.5986l3.179-.2728-2.885-2.8389c-2.523-2.4821-3.552-4.12428-2.584-4.12428.432 0 3.157 1.87108 4.99 3.42588l1.568 1.3303.259-1.8884c.143-1.0382.275-3.49725.294-5.46438zm217.595.19205c-.52-.92458-.51-1.13975.09-2.05766.77-1.16993 2.6-1.40428 3.4-.4358.64.76427.63 2.37902-.01 3.1531-.79.95201-2.79.573-3.48-.65964zm-157.594.97871c0-1.33689.666-2.47042 1.691-2.87921 1.734-.69098 3.796.72317 3.796 2.6025 0 1.13662-1.618 2.87843-2.673 2.87843-1.187 0-2.814-1.5043-2.814-2.60172zm176.524 21.80652c-2.25 0-3.33-2.7028-1.72-4.3113 1.62-1.6206 4.31-.5624 4.31 1.6955 0 1.5983-1.01 2.6158-2.59 2.6158zm-128.625.747c-2.473 1.3028-4.879-2.2234-2.962-4.3414 1.55-1.7132 4.455-.3943 4.441 2.0161-.008 1.2197-.324 1.7166-1.479 2.3253zm526.675-28.95111c0-.40212 2.21-1.086816 5.1-1.581048 7.14-1.222057 16.32.506789 24.89 4.688358 15.63 7.6322 27.07 21.386 30.73 36.9529l.72 3.0375h-2.24-2.24l-.85-3.1751c-2.4-8.9757-6.36-15.748-13.16-22.5093-5.17-5.1434-10.77-8.7264-18.25-11.66986-4.7-1.84759-12.66-3.86175-18.77-4.75066l-1.72-.25007 1.93 1.52227c8.74 6.91372 14.09 21.84842 12.72 35.52192-.24 2.3493-.43 4.5049-.43 4.791 0 .3567-.57.5198-1.81.5198-1.78 0-1.81-.0208-1.56-1.0778.14-.593.36-3.1943.48-5.7811.45-9.6612-1.88-17.7006-7.54-26.0669-2.79-4.12865-7.23-9.79526-7.67-9.79526-.18 0-.33-.1697-.33-.37665zm-144.65 5.22687c.01-1.96713.15-4.17178.3-4.89921l.27-1.322778.28 1.325928c.15.7294.4 4.03655.56 7.3488.16 3.3126.37 6.0229.48 6.0229s1.33-1.0582 2.71-2.3516c2.39-2.2364 3.37-2.7542 3.82-2.0259.21.3398-2.2 4.1364-2.89 4.5679-1.01.6201-.19.9877 2.24 1.0144 3.88.0427 6.03.4562 6.52 1.2557.63 1.0081-.15 1.3612-3.66 1.6521-1.63.1352-3.44.3359-4.02.446l-1.07.2006 2.15 2.5249c2.29 2.6981 2.49 3.1864 1.52 3.5615-.43.1646-1.64-.7697-3.9-3.0148l-3.27-3.2534-.12 6.7072c-.09 4.6989-.27 6.8538-.62 7.1963-.97.9732-1.33-.3551-1.56-5.7646l-.23-5.4075-1.59 1.9307c-3.01 3.6312-7.04 7.6137-7.71 7.6137-.36 0-.89-.2637-1.15-.5859-.61-.7294-.3-1.2256 3.38-5.4248 1.48-1.6893 3.29-3.7615 4.02-4.6053l1.32-1.534-2.11-.0086c-2.49-.0098-10.07-.9689-10.42-1.3173-.14-.1329-.16-.3226-.06-.4217.3-.2995 6.6-1.3087 9.98-1.5987l3.18-.2728-2.88-2.8389c-2.52-2.4821-3.55-4.12428-2.59-4.12428.44 0 3.16 1.87108 4.99 3.42588l1.57 1.3303.26-1.8884c.14-1.0382.28-3.49721.3-5.46434zm217.59.19205c-.52-.92458-.51-1.13975.09-2.05767.77-1.16993 2.6-1.40427 3.4-.4358.64.76428.63 2.379-.01 3.15307-.79.95201-2.79.57304-3.48-.6596zm-157.59.97867c0-1.33689.66-2.47038 1.69-2.87917 1.73-.69098 3.79.72313 3.79 2.60246 0 1.13662-1.61 2.87843-2.67 2.87843-1.19 0-2.81-1.5043-2.81-2.60172zm176.52 21.80652c-2.25 0-3.33-2.7028-1.72-4.3113 1.62-1.6206 4.31-.5624 4.31 1.6955 0 1.5983-1 2.6158-2.59 2.6158zm-128.62.747c-2.48 1.3028-4.88-2.2234-2.97-4.3414 1.55-1.7132 4.46-.3943 4.44 2.0161 0 1.2197-.32 1.7166-1.47 2.3253zm40.24 34.7143c5.53-5.2836 9.15-11.4884 11.02-18.9019.4-1.6085.47-1.6657 1.97-1.6657 1.86 0 1.89.1658.74 4.3191-1.8 6.5426-5.91 13.3792-10.87 18.1165l-2.35 2.2435 2.14 1.9577c2.82 2.5805 5.18 3.6367 8.17 3.6603 3.03.0243 4.6-.5225 7.66-2.6754 2.71-1.9091 3.17-2.0482 3.9-1.1734.39.4703.29.9038-.52 2.29-1.1 1.8672-2.63 3.1845-5.36 4.59-2.6 1.3455-7.63 1.536-10.64.4029-3.05-1.1507-5.27-2.8603-6.7-5.1496l-1.2-1.9374-1.6.9995c-5.53 3.44-13.03 6.3074-18.99 7.2602-4.21.6722-11.58.5804-15.28-.1897-1.8-.3743-3.36-.5887-3.47-.4766-.31.3073 3.08 5.1884 5.69 8.1918 7.01 8.0763 15.99 13.4716 27.09 16.2856 3.81.968 4.76 1.049 12.17 1.052 7.54.003 8.29-.064 12.24-1.093 2.31-.603 5.49-1.625 7.05-2.272 15.92-6.561 26.68-20.1628 30.54-38.5689.54-2.5832.7-13.0209.25-15.9714l-.29-1.8617h2.31 2.3l.29 2.4496c.49 4.0922.3 11.6303-.41 15.7754-1.87 11.017-7.24 21.843-14.79 29.8213-7.59 8.0117-15.96 12.9837-26.5 15.7307-3.89 1.013-4.71 1.087-12.01 1.088-6.09 0-8.57-.158-11.12-.707-11.79-2.542-21.81-7.93-30.04-16.1458-5.38-5.3786-10.74-13.3349-10.18-15.1088.18-.5604-.02-.8771-.76-1.213-1.23-.562-1.68-1.7955-.92-2.5523.49-.4879 1.02-.4284 4.06.4519 6.24 1.8092 9.93 2.2638 16.62 2.0459 7.09-.23 11.65-1.2299 16.96-3.7195 4.67-2.1877 7.3-3.971 10.83-7.3488zm32.57-13.9047c-2 0-3.62-3.2801-2.27-4.6248.72-.7231 2.45-.5593 3.59.3421 1.92 1.5066 1.06 4.2827-1.32 4.2827zm180.88 17.2452c-1.91 0-2.81-2.1541-1.51-3.5944.81-.8913 2.01-.9191 2.95-.0682 1.43 1.2969.5 3.6626-1.44 3.6626zm-47.1 1.1758c1.29-2.0478 2.33-4.0322 2.31-4.4093-.02-.377.08-.6847.23-.6835.33.0031.96 1.0868 4.57 7.8364 3.12 5.8437 5.28 9.3555 6.26 10.1711.37.3038 3.98 1.0132 8.37 1.6418 9.23 1.3236 9.34 1.3463 9.63 2.0973.4 1.0555-.14 1.6712-4.65 5.2484-4.78 3.7896-7.37 6.6829-8.05 8.9879-.36 1.249-.18 2.465 1.36 8.989.99 4.149 1.79 7.95 1.79 8.446 0 .994-.66 1.843-1.44 1.843-.28 0-4.05-1.951-8.38-4.335-4.33-2.383-8.29-4.52-8.79-4.747-.79-.362-1.69.068-7.31 3.514-7.94 4.862-10.76 6.278-11.34 5.695-.31-.306-.15-1.566.57-4.493.55-2.236 1.44-6.616 1.98-9.731l.97-5.664-4.47-4.5232c-2.45-2.488-5.56-5.843-6.9-7.4558l-2.44-2.9321 2.91-.6577c3.29-.7462 11.83-1.9044 14.04-1.9044h1.47l2.48-4.6052c1.37-2.5331 3.54-6.2808 4.83-8.3287zm-3.19 9.0146c1.89-3.1257 3.99-6.9655 4.68-8.5333.68-1.5677 1.3-2.7941 1.36-2.7255.07.0686.67 1.7892 1.34 3.8233 1.66 5.0791 4.3 10.522 6.05 12.4538 2.13 2.3646 3.92 2.9427 13.33 4.3148l1.95.2842-2.34 1.8056c-3.46 2.6734-6.37 5.9269-7.51 8.4212-.88 1.9364-.98 2.5524-.79 4.9984.13 1.534.76 4.631 1.42 6.883.65 2.251 1.15 4.122 1.1 4.157s-3.26-1.675-7.13-3.8c-3.88-2.125-7.26-3.863-7.51-3.863-.26 0-3.79 2.014-7.85 4.477-4.06 2.462-7.42 4.435-7.47 4.385-.05-.051.43-2.728 1.07-5.947.63-3.22 1.16-6.416 1.16-7.103.01-.687.18-1.701.39-2.254.25-.638.25-1.3608.02-1.9809-.45-1.164-7-7.7023-10.57-10.5352l-2.53-2.0106 4.88-.292c2.69-.1607 6.37-.5135 8.2-.7839l3.31-.4919zm-350.67.0748c3.57-4.7103 9.75-8.7394 15.75-10.262 4.33-1.1014 10.92-.8819 14.91.4965 10.01 3.4636 18.45 12.0909 20.49 20.958l.01.0331c.24 1.0163.36 1.5576.65 1.6714.33.1296.88-.2965 2.06-1.2084l.03-.0254c2.49-1.933 6.54-3.9134 9.07-4.4414 3.29-.687 7.27-.2245 9.55 1.1104 3.86 2.2607 6.94 7.3598 6.32 10.4608l-.23 1.144 1.46-1.436c.8-.7902 2.52-1.9417 3.81-2.559 1.95-.9297 2.87-1.1229 5.32-1.1229 3.91-.0004 6.19.8192 8.73 3.1418 4.32 3.9518 5.96 9.8908 4.01 14.5508-.23.548.13.685 2.48.92 3.07.309 4.12.995 3.08 2.028-1.13 1.135-19.44 1.929-57.13 2.478-14.33.209-38.42.583-53.52.831-21.09.346-28.68.343-32.72-.014-5.17-.457-6.39-.879-5.36-1.842.75-.691 6.83-1.335 15.07-1.594l7.53-.238-1.86-.864c-4.02-1.859-6.66-6.582-6.24-11.158.55-6.0577 5.08-10.4509 11.25-10.8918 3.01-.2156 5.73.5017 7.86 2.0753 1.67 1.2315 1.95 1.2162 1.95-.1094.02-3.634 2.62-10.1005 5.67-14.1328zm109.62-7.2865c-.49-.3045-.63-3.0633-.18-3.518.63-.6322 1.88-.031 2 .9618.13 1.1754-1.14 2.9736-1.82 2.5562zm-154.1 4.1506c-1.06-.8622-1.15-2.544-.18-3.6148 1.53-1.6861 4.89-.464 4.89 1.7767 0 2.1948-2.88 3.3189-4.71 1.8381zm55.27-1.1671c3.01-1.4432 5.94-2.2474 9.21-2.5324 7.84-.6835 16.84 3.3186 21.55 9.5841 3.16 4.1988 4.47 7.9982 5.3 15.4015.54 4.8455.88 5.7785 2.06 5.6115 1.19-.169 2.27-2.49 2.54-5.4481.2-2.2364.3-2.417 1.85-3.4843 4.54-3.1241 8.61-4.5116 12.45-4.2403 5.4.3809 8.22 3.0496 8.73 8.2635.37 3.7682 1.2 4.7002 2.78 3.1212.38-.376.99-.86 1.36-1.078.36-.2164 1.5-.9054 2.51-1.5305 2.68-1.6469 4.39-2.1588 7.26-2.1737 3.1-.0165 5.77 1.1186 7.92 3.3613 2.13 2.2259 2.75 4.0469 2.97 8.6699l.19 4.017h-15.04c-13.69-.001-39.76.484-84.53 1.571l-16.56.402-2.15-1.586c-5.55-4.097-6.35-10.88-1.78-14.9921 4.68-4.2051 9.45-3.2338 13.67 2.7841 1.27 1.812 1.93 2.415 2.63 2.415 1.77 0 2.14-2.427.78-5.0556-.58-1.1386.01-4.793 1.39-8.4435 2.38-6.3513 7.34-11.9697 12.91-14.6376zm287.22 5.9311c-.88-.7956-.93-2.6071-.1-3.4388.81-.8055 2.86-.7878 3.76.0329.89.8078.93 2.3912.07 3.3377-.81.8932-2.78.9293-3.73.0682zm-13.7 52.9396c.03-2.605.18-4.869.34-5.032.37-.371.73 3.821 1.09 12.805.16 3.826.39 6.957.52 6.957s1.86-1.612 3.84-3.583c2.5-2.486 3.79-3.509 4.22-3.344.34.132.62.414.62.628s-1.12 1.877-2.49 3.697l-2.5 3.309 1.17.235c.65.129 2.96.255 5.15.28 4.78.056 6.26.335 6.43 1.204.21 1.067-1.09 1.438-6.03 1.726-2.57.15-4.98.385-5.36.522-.58.207-.21.818 2.27 3.704 1.66 1.927 2.92 3.741 2.85 4.099-.29 1.5-1.5.724-5.4-3.469-2.22-2.392-4.18-4.206-4.35-4.033-.16.174-.36 4.232-.43 9.018-.09 6.293-.26 8.837-.62 9.191-1.08 1.086-1.39-.349-1.62-7.682l-.24-7.267-5.8 6.269c-5.82 6.293-6.81 7.017-8.01 5.817-.34-.335-.34-.664-.02-1.274.55-1.033 5.66-7.332 9.09-11.208l2.6-2.94-5.59-.293c-8-.419-11.88-.996-11.21-1.667.36-.364 8.32-1.338 13.16-1.611 2.64-.148 4.8-.317 4.8-.374 0-.058-1.98-2.049-4.41-4.426-3.11-3.051-4.28-4.443-3.99-4.739.44-.441 4.57 2.176 7.77 4.921l1.61 1.383.25-4.044c.13-2.224.27-6.174.29-8.779zm-52.28-.713c-1.81 1.196-3.89-1.577-2.34-3.124.89-.892 2.43-.805 2.95.167.59 1.103.34 2.335-.61 2.957zm-264.13 24.85c-.99 0-1.35-2.163-.59-3.577.56-1.049 2.09-.834 2.25.316.16 1.086-.95 3.261-1.66 3.261zm419.34 10.664c2.65-5.769 7.64-9.908 14.03-11.631 4.32-1.162 9.63-.625 14.07 1.421l2.67 1.229v2.145 2.144l-1.27-.952c-5.32-3.972-14.35-4.122-20.21-.334-4.01 2.588-6.77 6.719-8.16 12.167-.5 1.98-.59 3.574-.41 7.153.12 2.532.09 4.605-.07 4.605s-1.07-.816-2.04-1.813c-2.43-2.529-5.97-4.76-8.03-5.069-6.08-.912-11.2 4.024-11.27 10.876-.01 1.576.11 3.286.28 3.801l.32.936 7.1-.268c15.18-.569 30.91-.995 37.2-1.006l6.56-.01v2.414 2.414l-21.65-.253c-28.09-.328-52.82-1.206-52.17-1.853.18-.181 5.23-.551 11.21-.822 5.98-.272 10.87-.628 10.87-.793s-.39-1.054-.88-1.977c-1.27-2.422-1.2-6.382.17-9.354 2.04-4.435 5.93-7.011 10.6-7.018 2.81-.004 6.14.994 7.88 2.364 1.36 1.067 1.45.993 1.2-.898-.28-2.105.69-6.743 2-9.618zm-321.2-5.961c-.72 0-1.28-.276-1.54-.758-.55-1.024-.52-2.897.06-3.475.67-.666 2.5-.583 3.23.145 1.38 1.382.22 4.088-1.75 4.088zm279.63.64c-.93.611-1.1.612-2.35.015-1.61-.771-1.83-2.229-.47-3.18 1.12-.789 2.21-.775 3.11.038 1.03.934.9 2.348-.29 3.127zm-416.04 2.318c-1.38-1.501-1.54-1.885-1.54-3.71v-2.036l1.22.708c1.86 1.085 5.1 4.781 6.51 7.418 1.38 2.584 2.46 6.232 2.46 8.274v1.297l1.65-.844c1.98-1.006 5.77-1.384 7.96-.793 2.39.647 5.09 2.543 6.61 4.639 2.5 3.433 3.65 8.973 2.62 12.565l-.36 1.271h3.21c3.28 0 4.96.588 4.96 1.738 0 1.719-2.09 1.928-23.61 2.361l-13.23.266v-2.379-2.378h12.1 12.09l.5-2.329c1.1-5.187-.26-9.434-3.83-11.94-3.73-2.625-10.5-1.353-11.26 2.118-.26 1.2-2.26 2.968-2.9 2.57-.22-.136-.21-.791.03-1.664.78-2.797-.51-9.276-2.68-13.581-.53-1.043-1.66-2.65-2.51-3.571zm275.32 8.306c2.23-4.223 4.05-7.365 6.21-10.756.86-1.365 1.42-2.634 1.26-2.893-.18-.286-.08-.393.25-.282.29.098 1.67 2.282 3.05 4.852 3.25 6.042 6.46 11.539 7.37 12.609.62.732 1.83 1.004 8.96 2.021 4.54.646 8.55 1.291 8.92 1.432.37.143.67.671.67 1.183 0 .712-1.04 1.746-4.49 4.481-6.18 4.893-8.61 7.911-8.53 10.608.02.572.86 4.538 1.87 8.812l1.84 7.771-.86.691c-.19.161-.35.297-.52.377-.77.347-1.99-.331-9.44-4.444l-.8-.439-8.18-4.52-2.2 1.408c-12.56 8.042-16.62 9.923-15.97 7.407 1.23-4.801 2.33-9.919 3.01-14.012l.82-4.954-4.58-4.648c-5-5.077-8.8-9.538-8.8-10.342 0-.281.09-.42.2-.308s1.75-.119 3.63-.515 5.36-.91 7.73-1.144l.38-.037c.43-.041.83-.079 1.2-.114 2.98-.282 4.2-.397 5.01-1.036.56-.443.92-1.136 1.52-2.31l.01-.008c.13-.27.29-.566.46-.89zm-2.04 5.742c.79-.228 7.12-10.633 8.76-14.382.62-1.437 1.25-2.482 1.39-2.324s.73 1.787 1.3 3.619c.58 1.833 1.91 5.104 2.96 7.27 3.1 6.379 5.25 7.851 12.92 8.836.34.044.66.084.95.122 2.83.36 3.89.496 3.95.815.04.193-.3.455-.84.875-.1.073-.2.151-.3.234-3.19 2.507-6.78 6.219-7.74 8.019-1.84 3.419-1.77 6.36.34 13.357.54 1.801.91 3.347.82 3.436s-3.4-1.6-7.35-3.754l-7.18-3.916-1.2.724c-6.19 3.713-12.39 7.475-13.31 8.08-1.12.73-1.13.729-.92-.024 1.15-4.119 3.03-15.998 2.71-17.098-.3-1.003-8.53-8.997-11.35-11.019l-1.75-1.259 3.86-.269c4.29-.298 10.95-1.044 11.98-1.342zm-187.61.435c.13-4.096.31-7.843.42-8.329.27-1.337 1.27-1.078 1.51.392.11.701.48 4.625.83 8.721.34 4.096.71 7.874.81 8.396.18.868.58.57 4.67-3.508 2.46-2.451 4.58-4.346 4.71-4.211.25.247-2.97 4.819-5.75 8.18l-1.49 1.802 6.31.27c6.65.284 8.3.66 7.3 1.662-.39.389-2.29.686-6.22.971l-.07.005c-7.25.525-8.61.624-8.86 1.203-.06.133-.06.292-.06.487v.008c0 .661.78 1.54 2.84 3.193 3.83 3.072 12.45 11.698 12.45 12.457 0 .334-.37.803-.81 1.042l-.03.012c-.14.078-.27.146-.4.183-.91.249-2.19-.873-12.03-9.498l-.23-.207-1.67-1.462-.28 4.597c-.42 6.799-.63 7.732-1.78 7.732-.72 0-1.02-.281-1.26-1.175-.41-1.539-1-6.192-1.32-10.485l-.25-3.43-4.54 4.311c-4.4 4.171-5.74 4.975-6.23 3.713-.25-.661 3.05-4.594 7.31-8.691 1.97-1.891 2.42-2.534 2.01-2.809-.3-.196-2.24-.47-4.32-.607-4.72-.314-10.63-.982-11.41-1.288-.76-.303 3.95-1.159 8.36-1.518l3.46-.282-3.46-3.513c-3.91-3.968-3.64-3.938 2.36.262 2.83 1.983 4.61 2.976 5.34 2.976 1.03 0 1.11-.121 1.33-2.058.12-1.131.33-5.408.45-9.504zm-317.71-114.4542c5.53-5.2837 9.15-11.4885 11.02-18.9019.4-1.6086.47-1.6658 1.97-1.6658 1.86 0 1.89.1658.74 4.3192-1.8 6.5426-5.91 13.3791-10.87 18.1164l-2.35 2.2435 2.14 1.9577c2.82 2.5805 5.18 3.6368 8.17 3.6603 3.03.0243 4.6-.5225 7.66-2.6754 2.71-1.9091 3.17-2.0482 3.9-1.1734.39.4703.29.9038-.52 2.29-1.1 1.8672-2.64 3.1845-5.36 4.59-2.6 1.3455-7.63 1.536-10.64.4029-3.05-1.1507-5.27-2.8603-6.7-5.1496l-1.2-1.9374-1.61.9995c-5.52 3.44-13.02 6.3074-18.98 7.2602-4.21.6722-11.59.5804-15.281-.1897-1.796-.3743-3.358-.5887-3.471-.4766-.307.3073 3.085 5.1885 5.693 8.1919 7.009 8.0762 15.989 13.4724 27.089 16.2854 3.81.968 4.76 1.049 12.17 1.052 7.54.003 8.29-.064 12.24-1.093 2.31-.603 5.49-1.625 7.05-2.272 15.92-6.5609 26.68-20.1627 30.54-38.5688.54-2.5832.7-13.0209.25-15.9714l-.29-1.8617h2.31 2.3l.29 2.4496c.49 4.0922.3 11.6303-.41 15.7755-1.87 11.0169-7.24 21.8429-14.8 29.8212-7.58 8.0116-15.95 12.9836-26.49 15.7306-3.89 1.013-4.71 1.087-12.01 1.088-6.09.001-8.57-.158-11.12-.707-11.79-2.542-21.81-7.93-30.036-16.1457-5.384-5.3785-10.746-13.3348-10.183-15.1087.178-.5605-.02-.8772-.757-1.2131-1.234-.562-1.68-1.7954-.923-2.5523.487-.4879 1.022-.4284 4.057.4519 6.24 1.8092 9.932 2.2638 16.622 2.0459 7.09-.23 11.64-1.2299 16.96-3.7194 4.67-2.1878 7.3-3.9711 10.83-7.3488zm32.57-13.9048c-2 0-3.62-3.2801-2.27-4.6248.72-.7231 2.45-.5593 3.59.3422 1.92 1.5066 1.06 4.2826-1.32 4.2826zm180.88 17.2452c-1.91 0-2.81-2.1541-1.51-3.5944.81-.8913 2.01-.9191 2.95-.0682 1.43 1.2969.5 3.6626-1.44 3.6626zm-47.1 1.1758c1.29-2.0478 2.33-4.0322 2.31-4.4092-.02-.3771.08-.6848.23-.6836.33.0032.96 1.0869 4.57 7.8364 3.12 5.8438 5.28 9.3555 6.26 10.1711.37.3038 3.98 1.0132 8.37 1.6418 9.23 1.3236 9.34 1.3463 9.63 2.0973.4 1.0555-.14 1.6712-4.66 5.2484-4.77 3.7896-7.36 6.6829-8.04 8.9878-.36 1.249-.18 2.465 1.36 8.989.99 4.15 1.79 7.95 1.79 8.446 0 .994-.66 1.843-1.44 1.843-.28 0-4.05-1.95-8.38-4.335-4.34-2.383-8.29-4.52-8.79-4.747-.79-.362-1.69.068-7.31 3.514-7.94 4.862-10.76 6.278-11.34 5.695-.31-.306-.15-1.566.57-4.493.55-2.236 1.44-6.615 1.98-9.731l.97-5.664-4.47-4.5231c-2.45-2.488-5.56-5.843-6.9-7.4558l-2.44-2.9321 2.91-.6577c3.29-.7462 11.83-1.9044 14.04-1.9044h1.47l2.48-4.6052c1.37-2.5331 3.54-6.2808 4.83-8.3287zm-3.19 9.0146c1.89-3.1257 3.99-6.9655 4.68-8.5333.68-1.5677 1.3-2.7941 1.36-2.7255.07.0686.67 1.7892 1.34 3.8234 1.66 5.079 4.3 10.5219 6.05 12.4537 2.13 2.3646 3.92 2.9427 13.33 4.3148l1.95.2842-2.34 1.8056c-3.46 2.6734-6.37 5.9269-7.51 8.4212-.88 1.9363-.98 2.5523-.79 4.9983.13 1.534.76 4.631 1.42 6.883.65 2.252 1.15 4.123 1.1 4.157-.05.035-3.26-1.675-7.13-3.8-3.88-2.124-7.26-3.863-7.51-3.863-.26 0-3.79 2.015-7.85 4.477-4.06 2.463-7.42 4.436-7.47 4.385s.43-2.727 1.07-5.947c.63-3.22 1.16-6.416 1.16-7.103.01-.687.18-1.7.39-2.254.25-.638.25-1.3607.02-1.9807-.45-1.1641-7-7.7024-10.57-10.5353l-2.53-2.0106 4.88-.292c2.69-.1607 6.37-.5134 8.2-.7839l3.31-.4919zm-350.669.0748c3.569-4.7103 9.751-8.7394 15.746-10.262 4.336-1.1014 10.921-.8819 14.909.4965 10.018 3.4636 18.456 12.0909 20.498 20.958l.007.0328c.234 1.0165.359 1.5579.651 1.6717.332.1296.881-.2964 2.056-1.208l.033-.0257c2.491-1.9331 6.534-3.9135 9.067-4.4415 3.295-.687 7.275-.2245 9.552 1.1104 3.858 2.2607 6.937 7.3598 6.317 10.4608l-.229 1.144 1.463-1.436c.804-.7902 2.52-1.9417 3.813-2.559 1.948-.9297 2.863-1.1229 5.32-1.1229 3.906-.0004 6.181.8192 8.723 3.1418 4.324 3.9527 5.96 9.8907 4.009 14.5507-.23.548.139.685 2.483.92 3.074.309 4.118.995 3.085 2.028-1.134 1.135-19.447 1.929-57.13 2.478-14.335.209-38.422.583-53.527.831-21.092.346-28.681.343-32.717-.014-5.166-.457-6.393-.879-5.357-1.842.743-.691 6.828-1.335 15.064-1.594l7.533-.238-1.865-.864c-4.013-1.859-6.654-6.582-6.239-11.158.549-6.0576 5.088-10.4508 11.252-10.8917 3.013-.2156 5.732.5017 7.865 2.0753 1.669 1.2315 1.943 1.2162 1.95-.1094.019-3.634 2.613-10.1005 5.668-14.1328zm109.619-7.2865c-.493-.3045-.633-3.0633-.178-3.518.632-.6322 1.88-.0309 1.996.9618.136 1.1755-1.143 2.9736-1.818 2.5562zm-154.1 4.1506c-1.065-.8622-1.148-2.544-.179-3.6148 1.526-1.6861 4.888-.464 4.888 1.7767 0 2.1948-2.88 3.3189-4.709 1.8381zm55.268-1.1671c3.013-1.4432 5.938-2.2474 9.211-2.5323 7.844-.6836 16.844 3.3185 21.554 9.584 3.156 4.1988 4.462 7.9982 5.294 15.4015.545 4.8454.887 5.7784 2.061 5.6114 1.189-.169 2.272-2.49 2.54-5.448.203-2.2364.299-2.417 1.85-3.4843 4.541-3.1241 8.616-4.5116 12.457-4.2403 5.397.3809 8.216 3.0496 8.728 8.2635.37 3.7681 1.2 4.7001 2.778 3.1211.376-.376.985-.86 1.354-1.078.369-.2162 1.502-.9053 2.517-1.5304 2.674-1.6469 4.384-2.1588 7.26-2.1737 3.099-.0164 5.772 1.1186 7.917 3.3613 2.129 2.2258 2.753 4.0468 2.971 8.6698l.189 4.017h-15.043c-13.689-.001-39.754.484-84.522 1.571l-16.567.402-2.146-1.586c-5.546-4.097-6.351-10.88-1.778-14.992 4.677-4.2051 9.445-3.2338 13.669 2.784 1.272 1.812 1.929 2.415 2.632 2.415 1.761 0 2.135-2.427.779-5.0555-.588-1.1386.011-4.793 1.383-8.4435 2.387-6.3513 7.343-11.9697 12.912-14.6376zm287.222 5.9311c-.88-.7956-.93-2.6071-.1-3.4388.81-.8055 2.86-.7878 3.76.0329.89.8078.93 2.3912.07 3.3377-.81.8933-2.78.9293-3.73.0682zm-13.7 52.9395c.03-2.605.18-4.869.34-5.032.37-.371.73 3.821 1.09 12.805.16 3.826.39 6.957.52 6.957s1.86-1.612 3.84-3.582c2.5-2.487 3.79-3.51 4.22-3.344.34.131.62.413.62.627s-1.12 1.877-2.49 3.697l-2.5 3.309 1.17.235c.65.129 2.96.255 5.14.28 4.79.056 6.27.335 6.44 1.204.21 1.067-1.09 1.438-6.03 1.726-2.57.15-4.98.385-5.36.522-.58.207-.21.818 2.27 3.704 1.66 1.927 2.92 3.741 2.85 4.1-.29 1.499-1.5.723-5.4-3.469-2.22-2.392-4.18-4.207-4.35-4.034-.16.174-.36 4.232-.43 9.018-.09 6.293-.26 8.837-.62 9.191-1.08 1.086-1.39-.349-1.62-7.682l-.24-7.267-5.8 6.269c-5.82 6.294-6.81 7.017-8.02 5.817-.33-.335-.33-.664-.01-1.274.55-1.033 5.66-7.332 9.09-11.208l2.6-2.94-5.59-.293c-8.01-.419-11.88-.996-11.21-1.667.36-.364 8.32-1.338 13.16-1.61 2.64-.149 4.8-.318 4.8-.375 0-.058-1.98-2.049-4.41-4.426-3.11-3.051-4.28-4.443-3.99-4.739.44-.441 4.57 2.177 7.77 4.921l1.61 1.383.25-4.044c.13-2.224.27-6.174.29-8.779zm-52.28-.713c-1.81 1.196-3.89-1.577-2.34-3.124.89-.892 2.43-.805 2.95.167.59 1.103.33 2.335-.61 2.957zm-264.127 24.85c-.992 0-1.35-2.163-.593-3.577.561-1.049 2.087-.834 2.251.317.154 1.085-.951 3.26-1.658 3.26zm419.337 10.664c2.65-5.769 7.64-9.908 14.03-11.631 4.32-1.162 9.63-.625 14.07 1.421l2.67 1.229v2.145 2.144l-1.27-.952c-5.32-3.972-14.35-4.122-20.21-.334-4.01 2.588-6.77 6.719-8.16 12.167-.5 1.98-.59 3.574-.41 7.153.12 2.532.09 4.605-.07 4.605s-1.07-.816-2.04-1.813c-2.43-2.528-5.97-4.76-8.03-5.069-6.08-.912-11.2 4.024-11.27 10.876-.02 1.576.11 3.286.28 3.801l.32.936 7.1-.267c15.18-.57 30.91-.996 37.2-1.007l6.56-.01v2.414 2.414l-21.65-.253c-28.09-.328-52.82-1.206-52.17-1.853.18-.181 5.23-.551 11.21-.822 5.98-.272 10.87-.628 10.87-.793s-.39-1.054-.88-1.977c-1.27-2.422-1.2-6.382.17-9.354 2.04-4.435 5.93-7.011 10.6-7.017 2.81-.005 6.14.994 7.88 2.363 1.35 1.067 1.45.994 1.2-.898-.28-2.105.69-6.743 2-9.618zm-322.743-6.719c-.548-1.024-.513-2.897.065-3.475.666-.666 2.496-.583 3.225.145 1.382 1.382.227 4.088-1.744 4.088-.726 0-1.287-.276-1.546-.758zm278.823 1.413c-1.61-.771-1.83-2.229-.47-3.18 1.12-.788 2.21-.775 3.11.038 1.03.934.9 2.348-.29 3.127-.93.611-1.1.613-2.35.015zm-414.55-3.047v-.628l-2.667-1.229c-4.44-2.046-9.756-2.583-14.071-1.421-6.394 1.723-11.386 5.862-14.027 11.631-1.316 2.875-2.282 7.513-2.002 9.618.251 1.891.152 1.965-1.204.898-1.741-1.37-5.07-2.368-7.883-2.363-4.668.006-8.558 2.582-10.599 7.017-1.368 2.972-1.437 6.932-.164 9.354.485.923.882 1.812.882 1.977s-4.894.521-10.877.793c-5.982.271-11.024.641-11.206.822-.649.647 24.08 1.525 52.164 1.853l21.654.253v-.085l12.548-.252c21.523-.433 23.614-.642 23.614-2.361 0-1.15-1.68-1.738-4.959-1.738h-3.217l.364-1.271c1.031-3.592-.123-9.132-2.617-12.565-1.521-2.096-4.226-3.992-6.615-4.639-2.185-.591-5.981-.213-7.953.793l-1.655.845v-1.298c0-2.042-1.085-5.689-2.462-8.274-1.404-2.637-4.65-6.333-6.512-7.418zm-.68 33.748-5.885.009c-6.28.011-22.017.437-37.19 1.007l-7.11.267-.311-.936c-.172-.515-.299-2.225-.282-3.801.072-6.852 5.186-11.788 11.268-10.876 2.061.309 5.598 2.541 8.035 5.069.961.997 1.879 1.813 2.038 1.813.16 0 .189-2.073.063-4.605-.177-3.579-.084-5.173.418-7.153 1.382-5.448 4.15-9.579 8.153-12.167 5.861-3.788 14.889-3.638 20.209.334l.725.541c.172.675.56 1.176 1.412 2.1.849.921 1.975 2.528 2.503 3.572 2.177 4.304 3.46 10.783 2.687 13.581-.241.872-.255 1.527-.035 1.663.644.398 2.641-1.369 2.904-2.57.763-3.471 7.526-4.743 11.261-2.118 3.564 2.506 4.925 6.753 3.824 11.94l-.494 2.329h-12.097-11.416-.009-.671zm283.07-30.848c.86-1.364 1.42-2.634 1.26-2.893-.18-.286-.08-.393.25-.282.29.098 1.67 2.282 3.05 4.852 3.25 6.042 6.46 11.539 7.37 12.609.62.733 1.82 1.005 8.96 2.021 4.54.646 8.55 1.291 8.92 1.432.37.143.67.671.67 1.184 0 .711-1.04 1.745-4.49 4.48-6.18 4.893-8.61 7.911-8.53 10.608.02.573.86 4.538 1.87 8.812l1.84 7.771-.86.691c-.02.024-.05.047-.08.07-.16.13-.29.239-.44.308-.77.346-1.99-.332-9.44-4.445l-.8-.439-8.18-4.52-2.2 1.408c-12.56 8.042-16.62 9.923-15.97 7.407 1.23-4.801 2.33-9.918 3.01-14.011l.82-4.955-4.58-4.648c-5-5.077-8.8-9.538-8.8-10.342 0-.281.09-.42.2-.308.11.113 1.75-.119 3.63-.515 1.88-.395 5.36-.91 7.73-1.144.58-.056 1.1-.106 1.58-.151 2.98-.282 4.2-.397 5.01-1.036.56-.442.92-1.136 1.52-2.31.14-.272.3-.571.47-.897 2.23-4.224 4.05-7.366 6.21-10.757zm-8.25 16.498c.79-.228 7.12-10.633 8.76-14.382.62-1.436 1.25-2.482 1.39-2.324.14.159.73 1.787 1.3 3.619.58 1.833 1.91 5.104 2.96 7.27 3.1 6.379 5.25 7.851 12.92 8.837.34.043.65.083.95.121 2.83.36 3.89.496 3.95.815.04.194-.3.455-.84.875l-.02.009c-.09.071-.18.145-.28.225-3.19 2.507-6.78 6.219-7.74 8.019-1.84 3.419-1.77 6.36.34 13.357.54 1.801.91 3.347.82 3.436s-3.4-1.6-7.35-3.754l-7.18-3.916-1.2.724c-6.19 3.713-12.39 7.475-13.31 8.08-1.12.73-1.13.729-.92-.024 1.15-4.119 3.03-15.998 2.71-17.098-.3-1.003-8.53-8.997-11.35-11.019l-1.75-1.259 3.86-.269c4.29-.297 10.95-1.044 11.98-1.342zm-187.607.435c.126-4.096.311-7.843.412-8.329.278-1.337 1.277-1.078 1.513.392.112.701.485 4.625.829 8.721.343 4.096.711 7.874.817 8.396.177.869.573.57 4.664-3.508 2.458-2.451 4.58-4.346 4.715-4.211.247.247-2.97 4.819-5.754 8.18l-1.494 1.802 6.31.27c6.652.284 8.306.661 7.304 1.662-.389.39-2.288.686-6.218.971l-.074.005c-7.25.526-8.605.624-8.858 1.203-.058.133-.058.291-.058.486v.01c0 .66.782 1.539 2.841 3.192 3.828 3.073 12.444 11.698 12.444 12.457 0 .334-.364.803-.81 1.042l-.023.012c-.145.078-.272.146-.407.183-.903.249-2.182-.873-12.021-9.495l-.002-.002-.238-.208-1.667-1.462-.28 4.597c-.414 6.799-.628 7.733-1.775 7.733-.719 0-1.021-.282-1.261-1.176-.413-1.539-.998-6.192-1.319-10.485l-.256-3.43-4.541 4.312c-4.392 4.17-5.741 4.974-6.225 3.712-.254-.661 3.054-4.594 7.309-8.691 1.965-1.891 2.424-2.534 2.006-2.809-.298-.196-2.238-.47-4.312-.607-4.722-.314-10.637-.982-11.412-1.288-.764-.303 3.949-1.158 8.36-1.518l3.462-.282-3.462-3.513c-3.91-3.968-3.639-3.938 2.356.262 2.832 1.983 4.614 2.976 5.344 2.976 1.031 0 1.109-.12 1.324-2.057.126-1.132.332-5.409.457-9.505zm127.014 3.779c-3.22 1.468-5.642-3.536-2.456-5.077 1.121-.542 1.236-.543 2.377-.023 2.161.985 2.21 4.129.079 5.1zm156.233 16.327c-.65-.651-.59-1.494.18-2.34.87-.961 2.35-.913 2.89.093.91 1.709-1.7 3.62-3.07 2.247zm-158.727 23.769c-1.035-.725-1.17-2.563-.256-3.478.771-.77 2.274-.796 2.893-.051.369.446.301.942-.322 2.352-.873 1.973-1.05 2.063-2.315 1.177zm-934.9587-221.99472c0-.40213 2.2066-1.08685 5.0951-1.581081 7.1431-1.222057 16.3206.506819 24.888 4.688381 15.637 7.63222 27.0766 21.38592 30.7366 36.95282l.714 3.0376h-2.238-2.239l-.85-3.1751c-2.402-8.9757-6.361-15.748-13.158-22.5093-5.1708-5.1434-10.7766-8.7264-18.2571-11.66987-4.6966-1.84759-12.6514-3.86175-18.7659-4.75066l-1.7175-.25007 1.926 1.52224c8.746 6.91376 14.0928 21.84846 12.7167 35.52196-.2363 2.3492-.4299 4.5049-.4299 4.791 0 .3567-.5675.5198-1.8096.5198-1.7747 0-1.8045-.0208-1.5525-1.0779.1411-.593.3551-3.1943.4755-5.7811.4495-9.6612-1.8739-17.7006-7.5338-26.0668-2.793-4.1287-7.2313-9.79531-7.6718-9.79531-.1811 0-.3288-.16967-.3288-.37661zm-144.659 5.22683c.0192-1.96712.1564-4.17174.3058-4.89917l.2712-1.322781.2779 1.325931c.1528.7294.4048 4.03652.5601 7.34877.1552 3.31264.3707 6.02294.4789 6.02294.1078 0 1.3275-1.0583 2.7102-2.3516 2.3908-2.2364 3.366-2.7542 3.8159-2.026.2105.3398-2.1913 4.1365-2.8893 4.568-1.0034.6201-.1893.9877 2.2446 1.0144 3.8782.0427 6.026.4561 6.5234 1.2557.6267 1.008-.1568 1.3612-3.6631 1.6521-1.6269.1352-3.4372.3358-4.0224.446l-1.0637.2006 2.1415 2.5249c2.2889 2.698 2.497 3.1864 1.5195 3.5615-.4291.1646-1.6359-.7698-3.8926-3.0148l-3.2704-3.2535-.1246 6.7073c-.0874 4.6989-.2712 6.8538-.6146 7.1963-.9755.9732-1.3353-.3551-1.5622-5.7646l-.2266-5.4075-1.5975 1.9306c-3.0042 3.6313-7.0343 7.6138-7.7043 7.6138-.368 0-.888-.2638-1.156-.5859-.605-.7294-.295-1.2256 3.383-5.4248 1.48-1.6893 3.2868-3.7615 4.015-4.6053l1.3247-1.534-2.1086-.0086c-2.4872-.0098-10.0751-.9689-10.4241-1.3174-.133-.1328-.16-.3225-.062-.4217.3-.2994 6.604-1.3086 9.9892-1.5986l3.1789-.2728-2.885-2.8389c-2.5229-2.4821-3.5521-4.12429-2.584-4.12429.4319 0 3.1574 1.87109 4.9901 3.42589l1.5677 1.3303.2595-1.8884c.1431-1.0382.2751-3.49726.2939-5.46439zm217.5947.19205c-.517-.92458-.507-1.13975.095-2.05766.767-1.16993 2.594-1.40428 3.398-.4358.634.76427.626 2.37902-.017 3.1531-.79.95201-2.788.573-3.476-.65964zm-157.5939.97871c0-1.33689.6659-2.47042 1.6912-2.87921 1.7335-.69098 3.7959.72317 3.7959 2.6025 0 1.13662-1.6176 2.87834-2.673 2.87834-1.1868 0-2.8141-1.50421-2.8141-2.60163zm176.5289 21.80653c-2.253 0-3.334-2.7028-1.725-4.3113 1.62-1.6206 4.311-.5625 4.311 1.6955 0 1.5983-1.006 2.6158-2.586 2.6158zm-128.6296.747c-2.4732 1.3028-4.8788-2.2234-2.9619-4.3415 1.5501-1.7131 4.4551-.3942 4.4406 2.0162-.0074 1.2197-.3237 1.7166-1.4787 2.3253zm526.6786-28.95112c0-.40212 2.207-1.086815 5.095-1.581046 7.143-1.222057 16.321.506789 24.888 4.688356 15.637 7.63221 27.077 21.38591 30.737 36.95291l.714 3.0375h-2.238-2.239l-.849-3.1751c-2.403-8.9757-6.362-15.748-13.159-22.5093-5.171-5.1434-10.777-8.7264-18.257-11.66987-4.697-1.84759-12.651-3.86175-18.766-4.75066l-1.718-.25007 1.927 1.52227c8.746 6.91373 14.092 21.84843 12.716 35.52193-.236 2.3493-.43 4.5049-.43 4.791 0 .3567-.567.5198-1.809.5198-1.775 0-1.805-.0208-1.553-1.0779.141-.5929.355-3.1942.476-5.781.449-9.6612-1.874-17.7006-7.534-26.0669-2.793-4.12866-7.231-9.79527-7.672-9.79527-.181 0-.329-.1697-.329-.37665zm-144.659 5.22687c.02-1.96712.157-4.17178.306-4.89921l.271-1.322776.278 1.325936c.153.72939.405 4.03654.56 7.3488.156 3.3126.371 6.0229.479 6.0229s1.328-1.0583 2.71-2.3516c2.391-2.2364 3.366-2.7542 3.816-2.026.211.3399-2.191 4.1365-2.889 4.568-1.003.6201-.189.9877 2.245 1.0144 3.878.0427 6.026.4562 6.523 1.2557.627 1.0081-.157 1.3612-3.663 1.6521-1.627.1352-3.437.3358-4.022.446l-1.064.2006 2.141 2.5249c2.289 2.6981 2.497 3.1864 1.52 3.5615-.429.1646-1.636-.7697-3.893-3.0148l-3.27-3.2534-.125 6.7072c-.087 4.6989-.271 6.8538-.614 7.1963-.976.9732-1.336-.3551-1.563-5.7646l-.226-5.4075-1.598 1.9306c-3.004 3.6313-7.034 7.6138-7.704 7.6138-.368 0-.888-.2637-1.156-.5859-.605-.7294-.295-1.2256 3.383-5.4248 1.48-1.6893 3.287-3.7615 4.015-4.6053l1.325-1.534-2.109-.0086c-2.487-.0098-10.075-.9689-10.424-1.3174-.133-.1328-.16-.3225-.062-.4216.3-.2995 6.604-1.3087 9.989-1.5987l3.179-.2728-2.885-2.8389c-2.523-2.4821-3.552-4.12429-2.584-4.12429.432 0 3.158 1.87109 4.99 3.42589l1.568 1.3303.259-1.8884c.143-1.0382.276-3.49722.294-5.46435zm217.595.19205c-.517-.92458-.507-1.13975.095-2.05767.767-1.16993 2.594-1.40427 3.398-.4358.634.76428.626 2.379-.017 3.15307-.79.95202-2.788.57304-3.476-.6596zm-157.594.97868c0-1.3369.666-2.47039 1.691-2.87918 1.734-.69098 3.796.72313 3.796 2.60246 0 1.13662-1.617 2.87834-2.673 2.87834-1.187 0-2.814-1.5042-2.814-2.60162zm176.529 21.80652c-2.253 0-3.334-2.7028-1.725-4.3113 1.62-1.6206 4.311-.5624 4.311 1.6955 0 1.5983-1.006 2.6158-2.586 2.6158zm-128.63.747c-2.473 1.3028-4.878-2.2234-2.961-4.3415 1.55-1.7131 4.455-.3942 4.44 2.0162-.007 1.2197-.324 1.7166-1.479 2.3253zm40.246 34.7143c5.53-5.2837 9.147-11.4884 11.017-18.9019.406-1.6085.473-1.6657 1.973-1.6657 1.861 0 1.889.1658.743 4.3191-1.805 6.5426-5.91 13.3792-10.877 18.1165l-2.352 2.2434 2.143 1.9578c2.823 2.5805 5.181 3.6367 8.172 3.6603 3.035.0243 4.599-.5225 7.656-2.6754 2.712-1.9091 3.174-2.0483 3.9-1.1735.39.4704.292.9038-.521 2.2901-1.094 1.8672-2.63 3.1845-5.352 4.59-2.606 1.3455-7.634 1.536-10.639.4029-3.052-1.1507-5.276-2.8603-6.699-5.1496l-1.205-1.9374-1.605.9994c-5.522 3.4401-13.021 6.3075-18.986 7.2603-4.207.6721-11.584.5804-15.28-.1897-1.796-.3743-3.358-.5887-3.471-.4766-.307.3073 3.086 5.1884 5.694 8.1918 7.012 8.0763 15.986 13.4725 27.084 16.2855 3.819.968 4.759 1.049 12.173 1.052 7.54.003 8.294-.064 12.239-1.093 2.313-.603 5.487-1.625 7.055-2.272 15.913-6.5609 26.681-20.1627 30.533-38.5688.541-2.5833.704-13.0209.25-15.9714l-.286-1.8617h2.306 2.306l.293 2.4496c.49 4.0922.293 11.6303-.412 15.7754-1.874 11.017-7.246 21.843-14.798 29.8213-7.584 8.0116-15.958 12.9836-26.497 15.7306-3.885 1.013-4.706 1.087-12.009 1.088-6.086.001-8.572-.158-11.121-.707-11.788-2.542-21.811-7.93-30.034-16.1457-5.383-5.3786-10.746-13.3349-10.183-15.1088.178-.5604-.019-.8771-.757-1.213-1.234-.562-1.68-1.7955-.923-2.5523.488-.488 1.023-.4284 4.057.4519 6.24 1.8092 9.933 2.2638 16.626 2.0459 7.085-.2301 11.641-1.2299 16.954-3.7195 4.669-2.1878 7.298-3.9711 10.833-7.3488zm32.572-13.9047c-2.006 0-3.619-3.2801-2.274-4.6248.723-.7231 2.447-.5593 3.592.3421 1.916 1.5066 1.062 4.2827-1.318 4.2827zm180.878 17.2452c-1.908 0-2.811-2.1541-1.507-3.5944.807-.8913 2.005-.9191 2.946-.0682 1.433 1.2969.503 3.6626-1.439 3.6626zm-47.104 1.1758c1.29-2.0478 2.33-4.0322 2.311-4.4093-.019-.377.086-.6847.235-.6835.33.0031.961 1.0868 4.564 7.8364 3.119 5.8437 5.281 9.3555 6.264 10.1711.366.3038 3.982 1.0132 8.369 1.6418 9.234 1.3236 9.34 1.3463 9.628 2.0973.405 1.0555-.141 1.6712-4.653 5.2484-4.779 3.7896-7.369 6.6829-8.044 8.9878-.366 1.249-.181 2.465 1.364 8.989.982 4.15 1.786 7.95 1.786 8.446 0 .994-.664 1.843-1.442 1.843-.276 0-4.047-1.95-8.381-4.335-4.333-2.383-8.286-4.52-8.784-4.747-.796-.362-1.693.068-7.318 3.514-7.938 4.862-10.756 6.278-11.338 5.695-.306-.306-.146-1.566.573-4.493.55-2.236 1.438-6.615 1.974-9.731l.976-5.664-4.468-4.5231c-2.457-2.488-5.564-5.843-6.904-7.4558l-2.437-2.9321 2.904-.6577c3.295-.7462 11.838-1.9044 14.048-1.9044h1.469l2.48-4.6052c1.363-2.5331 3.534-6.2808 4.824-8.3287zm-3.19 9.0146c1.89-3.1257 3.996-6.9655 4.68-8.5333.683-1.5677 1.299-2.7941 1.368-2.7255.068.0686.668 1.7892 1.333 3.8233 1.659 5.0791 4.303 10.5219 6.048 12.4538 2.136 2.3645 3.924 2.9427 13.339 4.3148l1.949.2842-2.341 1.8056c-3.467 2.6734-6.369 5.9269-7.511 8.4212-.887 1.9363-.984 2.5523-.789 4.9983.123 1.534.759 4.631 1.414 6.883.655 2.251 1.151 4.123 1.103 4.157-.047.035-3.257-1.675-7.132-3.8-3.875-2.124-7.255-3.863-7.51-3.863-.256 0-3.786 2.014-7.845 4.477-4.06 2.463-7.423 4.436-7.474 4.385s.429-2.727 1.068-5.947c.638-3.22 1.163-6.416 1.168-7.103.004-.687.179-1.7.389-2.254.243-.638.247-1.3607.012-1.9808-.443-1.164-7.001-7.7023-10.568-10.5352l-2.531-2.0106 4.883-.292c2.686-.1607 6.374-.5135 8.196-.7839l3.314-.4919zm-350.665.0748c3.569-4.7103 9.751-8.7394 15.745-10.2621 4.336-1.1013 10.922-.8818 14.909.4966 10.018 3.4636 18.456 12.0909 20.498 20.958l.008.0331c.234 1.0163.358 1.5576.65 1.6713.332.1297.882-.2964 2.057-1.2083l.033-.0254c2.491-1.933 6.533-3.9134 9.067-4.4414 3.294-.687 7.274-.2246 9.551 1.1104 3.858 2.2607 6.937 7.3598 6.317 10.4608l-.229 1.144 1.463-1.436c.804-.7902 2.52-1.9417 3.814-2.559 1.947-.9297 2.862-1.1229 5.319-1.1229 3.906-.0004 6.182.8192 8.723 3.1418 4.325 3.9527 5.961 9.8907 4.009 14.5507-.23.548.139.685 2.483.92 3.075.309 4.118.995 3.085 2.028-1.134 1.135-19.446 1.929-57.13 2.478-14.335.209-38.422.583-53.526.831-21.092.346-28.682.343-32.718-.014-5.166-.457-6.393-.879-5.357-1.842.744-.691 6.828-1.335 15.064-1.594l7.534-.238-1.866-.864c-4.013-1.859-6.653-6.582-6.239-11.158.55-6.0576 5.088-10.4508 11.253-10.8917 3.012-.2156 5.731.5017 7.864 2.0753 1.669 1.2314 1.943 1.2162 1.95-.1094.02-3.634 2.613-10.1006 5.669-14.1328zm109.618-7.2865c-.493-.3045-.632-3.0633-.178-3.518.633-.6322 1.88-.031 1.996.9618.137 1.1754-1.142 2.9736-1.818 2.5562zm-154.1 4.1506c-1.064-.8622-1.147-2.544-.179-3.6148 1.526-1.6861 4.888-.4641 4.888 1.7766 0 2.1949-2.88 3.319-4.709 1.8382zm55.269-1.1672c3.012-1.4431 5.937-2.2473 9.21-2.5323 7.844-.6835 16.844 3.3186 21.554 9.5841 3.156 4.1988 4.462 7.9982 5.294 15.4015.545 4.8454.887 5.7784 2.061 5.6114 1.19-.169 2.272-2.49 2.54-5.448.203-2.2364.299-2.4171 1.85-3.4843 4.541-3.1241 8.617-4.5116 12.457-4.2404 5.397.381 8.216 3.0497 8.729 8.2636.37 3.7681 1.199 4.7001 2.777 3.1211.376-.376.986-.86 1.354-1.078.37-.2163 1.502-.9053 2.517-1.5304 2.675-1.6469 4.385-2.1588 7.26-2.1737 3.099-.0165 5.772 1.1186 7.917 3.3612 2.129 2.2259 2.753 4.0469 2.971 8.6699l.189 4.017h-15.043c-13.688-.001-39.754.484-84.522 1.571l-16.567.402-2.146-1.586c-5.546-4.097-6.351-10.88-1.778-14.992 4.678-4.2051 9.446-3.2339 13.669 2.784 1.273 1.812 1.929 2.415 2.632 2.415 1.761 0 2.135-2.427.779-5.0555-.587-1.1386.011-4.793 1.383-8.4435 2.387-6.3513 7.343-11.9698 12.913-14.6377zm287.222 5.9312c-.88-.7956-.933-2.6072-.101-3.4388.805-.8055 2.856-.7878 3.762.0329.893.8078.925 2.3912.068 3.3377-.808.8932-2.778.9293-3.729.0682zm-13.699 52.9395c.026-2.605.18-4.869.342-5.032.367-.371.724 3.821 1.09 12.805.156 3.826.39 6.957.52 6.957s1.856-1.612 3.835-3.582c2.497-2.487 3.788-3.51 4.22-3.344.343.131.623.413.623.627s-1.123 1.877-2.495 3.697l-2.496 3.309 1.173.235c.645.129 2.958.255 5.141.28 4.782.056 6.269.335 6.437 1.204.205 1.067-1.092 1.438-6.031 1.726-2.568.15-4.981.385-5.362.522-.579.207-.204.818 2.275 3.704 1.655 1.927 2.914 3.741 2.845 4.1-.289 1.499-1.496.723-5.394-3.47-2.225-2.391-4.182-4.206-4.35-4.033-.169.174-.364 4.232-.434 9.018-.092 6.293-.263 8.837-.617 9.191-1.087 1.086-1.391-.349-1.628-7.682l-.234-7.267-5.797 6.269c-5.821 6.294-6.819 7.017-8.02 5.817-.335-.335-.339-.664-.015-1.274.55-1.033 5.658-7.332 9.09-11.208l2.603-2.94-5.593-.293c-8.005-.419-11.882-.996-11.211-1.667.364-.364 8.324-1.338 13.162-1.61 2.64-.149 4.801-.318 4.801-.375 0-.058-1.984-2.049-4.409-4.426-3.114-3.051-4.287-4.443-3.994-4.739.437-.441 4.57 2.177 7.771 4.921l1.612 1.383.246-4.044c.135-2.224.267-6.174.294-8.779zm-52.279-.713c-1.812 1.196-3.89-1.577-2.341-3.124.891-.892 2.423-.805 2.943.167.591 1.103.34 2.335-.602 2.957zm-264.13 24.85c-.991 0-1.35-2.163-.593-3.577.561-1.049 2.087-.834 2.251.317.155 1.085-.951 3.26-1.658 3.26zm98.14 4.703c-.726 0-1.287-.276-1.545-.758-.548-1.024-.513-2.897.064-3.475.666-.666 2.496-.583 3.225.145 1.382 1.382.228 4.088-1.744 4.088zm279.631.64c-.934.611-1.099.613-2.352.015-1.617-.771-1.835-2.229-.476-3.18 1.125-.788 2.217-.775 3.115.038 1.032.934.901 2.348-.287 3.127zm-417.584-3.428v-.231l-2.667-1.23c-4.44-2.046-9.756-2.583-14.071-1.421-6.394 1.723-11.386 5.862-14.027 11.631-1.316 2.875-2.282 7.513-2.002 9.619.251 1.891.152 1.964-1.204.897-1.741-1.369-5.07-2.368-7.883-2.363-4.668.006-8.558 2.582-10.599 7.017-1.368 2.972-1.437 6.932-.164 9.354.485.923.882 1.813.882 1.977 0 .165-4.895.521-10.877.793-5.982.271-11.024.641-11.206.822-.649.647 24.08 1.525 52.164 1.853l21.654.254v-.072l13.228-.266c21.523-.433 23.614-.642 23.614-2.361 0-1.15-1.68-1.738-4.959-1.738h-3.217l.365-1.271c1.03-3.592-.124-9.132-2.618-12.565-1.521-2.096-4.225-3.992-6.614-4.639-2.186-.591-5.982-.213-7.954.793l-1.655.845v-1.298c0-2.042-1.085-5.689-2.461-8.274-1.405-2.637-4.65-6.333-6.513-7.418zm0 2.097v1.96l-1.274-.951c-5.32-3.973-14.348-4.122-20.209-.335-4.003 2.588-6.772 6.719-8.153 12.167-.502 1.98-.595 3.575-.418 7.153.126 2.533.097 4.605-.063 4.605s-1.077-.816-2.038-1.813c-2.437-2.528-5.974-4.76-8.035-5.069-6.082-.912-11.196 4.025-11.268 10.876-.017 1.576.11 3.286.281 3.801l.312.936 7.11-.267c15.173-.57 30.909-.996 37.19-1.006l6.565-.011h12.096 12.097l.494-2.329c1.101-5.187-.26-9.434-3.823-11.94-3.736-2.625-10.499-1.353-11.262 2.118-.263 1.201-2.26 2.968-2.904 2.57-.219-.136-.206-.791.036-1.663.772-2.798-.51-9.277-2.688-13.581-.528-1.044-1.654-2.651-2.503-3.572-1.368-1.484-1.539-1.876-1.543-3.649zm276.859 11.956c2.234-4.224 4.047-7.366 6.207-10.757.869-1.364 1.423-2.634 1.263-2.893-.177-.286-.082-.393.251-.282.294.098 1.666 2.282 3.049 4.852 3.252 6.042 6.465 11.539 7.371 12.609.619.732 1.825 1.004 8.961 2.021 4.536.646 8.548 1.291 8.917 1.432.371.143.671.671.671 1.184 0 .711-1.036 1.745-4.49 4.48-6.179 4.893-8.606 7.911-8.529 10.608.016.573.857 4.538 1.869 8.812l1.839 7.771-.853.691c-.029.024-.057.047-.085.069l-.001.001-.001.001c-.158.13-.29.238-.441.306-.763.347-1.992-.331-9.439-4.444l-.795-.439-8.187-4.52-2.199 1.408c-12.559 8.042-16.616 9.923-15.971 7.407 1.231-4.801 2.331-9.918 3.012-14.011l.825-4.955-4.583-4.648c-5.004-5.077-8.802-9.538-8.802-10.342 0-.281.092-.42.204-.308.112.113 1.744-.119 3.625-.515 1.882-.395 5.362-.91 7.733-1.144.575-.056 1.099-.106 1.577-.151h.002c2.985-.282 4.205-.397 5.011-1.036.557-.443.915-1.136 1.522-2.31.14-.273.294-.571.467-.897zm-2.034 5.741c.786-.228 7.119-10.633 8.752-14.382.626-1.437 1.252-2.482 1.392-2.324.141.158.727 1.787 1.302 3.619.577 1.833 1.909 5.104 2.961 7.27 3.099 6.379 5.252 7.851 12.918 8.837.338.043.655.083.953.121 2.823.36 3.89.496 3.948.815.035.193-.302.455-.845.875-.094.073-.194.151-.3.234-3.189 2.507-6.772 6.219-7.74 8.019-1.838 3.419-1.763 6.36.339 13.357.542 1.801.911 3.347.822 3.436s-3.394-1.6-7.344-3.754l-7.181-3.916-1.206.724c-6.191 3.713-12.386 7.475-13.309 8.08-1.113.73-1.126.729-.916-.024 1.148-4.119 3.028-15.998 2.706-17.098-.294-1.003-8.524-8.997-11.345-11.019l-1.756-1.259 3.868-.269c4.288-.297 10.949-1.044 11.981-1.342zm-187.611.435c.125-4.096.31-7.843.411-8.329.278-1.337 1.278-1.078 1.513.392.113.701.485 4.625.829 8.721.343 4.096.711 7.874.818 8.396.176.869.573.57 4.663-3.508 2.458-2.451 4.58-4.346 4.715-4.211.247.247-2.969 4.819-5.754 8.18l-1.493 1.802 6.31.27c6.652.284 8.305.661 7.303 1.662-.389.39-2.287.686-6.218.971l-.074.005c-7.25.526-8.605.624-8.858 1.203-.059.135-.058.297-.058.495 0 .661.782 1.54 2.842 3.193 3.827 3.073 12.444 11.698 12.444 12.457 0 .334-.365.803-.81 1.042-.156.083-.288.156-.431.195-.902.249-2.183-.873-12.024-9.498l-.237-.207-1.667-1.462-.28 4.597c-.413 6.799-.628 7.733-1.775 7.733-.718 0-1.021-.282-1.261-1.176-.413-1.539-.998-6.192-1.319-10.485l-.256-3.43-4.541 4.312c-4.392 4.17-5.741 4.974-6.225 3.712-.254-.661 3.054-4.594 7.309-8.691 1.965-1.891 2.424-2.534 2.006-2.809-.298-.196-2.238-.47-4.311-.607-4.723-.314-10.637-.982-11.412-1.288-.765-.303 3.948-1.158 8.36-1.518l3.461-.282-3.461-3.513c-3.911-3.968-3.64-3.938 2.355.262 2.832 1.983 4.614 2.976 5.344 2.976 1.031 0 1.109-.12 1.324-2.057.126-1.132.332-5.409.458-9.505zm127.014 3.779c-3.221 1.468-5.643-3.536-2.457-5.077 1.121-.542 1.236-.543 2.377-.023 2.162.985 2.211 4.129.08 5.1zm156.23 16.327c-.652-.651-.587-1.494.178-2.34.871-.961 2.354-.913 2.893.093.914 1.708-1.698 3.62-3.071 2.247zm-158.725 23.769c-1.035-.725-1.17-2.563-.256-3.478.771-.77 2.274-.796 2.893-.051.369.446.302.942-.322 2.352-.873 1.973-1.05 2.063-2.315 1.177zm123.643 4.032c-.776-.257-1.159-1.956-.707-3.128.229-.593.583-1.078.786-1.078.911 0 1.61.538 1.61 1.237 0 1.126-1.15 3.148-1.689 2.969zm-565.8751-162.3611c5.5302-5.2837 9.1471-11.4885 11.017-18.902.4056-1.6085.4734-1.6657 1.973-1.6657 1.8613 0 1.8895.1658.7435 4.3192-1.8057 6.5425-5.9104 13.3791-10.877 18.1164l-2.352 2.2435 2.1423 1.9577c2.8231 2.5805 5.1814 3.6368 8.1723 3.6603 3.0347.0243 4.5989-.5225 7.6564-2.6754 2.7114-1.9091 3.1735-2.0482 3.8994-1.1734.3904.4703.292.9038-.5205 2.29-1.0943 1.8672-2.6303 3.1845-5.3523 4.59-2.6063 1.3455-7.6341 1.536-10.6391.4029-3.052-1.1507-5.2762-2.8603-6.6993-5.1496l-1.2045-1.9374-1.605.9995c-5.5223 3.44-13.0216 6.3074-18.9857 7.2602-4.2071.6722-11.5845.5804-15.2804-.1897-1.7963-.3743-3.3582-.5887-3.4706-.4766-.3069.3073 3.0853 5.1884 5.6932 8.1919 7.0122 8.0762 15.9859 13.4723 27.084 16.2853 3.819.968 4.7597 1.049 12.1735 1.052 7.5401.003 8.2934-.064 12.239-1.093 2.3124-.603 5.4871-1.625 7.0549-2.271 15.9134-6.5618 26.681-20.1636 30.533-38.5697.541-2.5832.704-13.0209.25-15.9714l-.286-1.8617h2.306 2.305l.294 2.4496c.49 4.0922.293 11.6303-.412 15.7754-1.874 11.017-7.246 21.843-14.7979 29.8213-7.5839 8.0115-15.958 12.9835-26.4972 15.7305-3.8852 1.013-4.706 1.087-12.0089 1.088-6.0864.001-8.5725-.158-11.1212-.707-11.7875-2.542-21.8113-7.93-30.0341-16.1456-5.3832-5.3786-10.74529-13.3349-10.18247-15.1088.17793-.5604-.01961-.8771-.75684-1.213-1.23421-.562-1.68024-1.7955-.9234-2.5523.48756-.4879 1.02258-.4284 4.05731.4519 6.2397 1.8092 9.9325 2.2638 16.6259 2.0459 7.0851-.23 11.6409-1.2299 16.9536-3.7195 4.6688-2.1877 7.2979-3.971 10.8331-7.3487zm32.5719-13.9048c-2.0059 0-3.6183-3.2801-2.2736-4.6248.7231-.7231 2.4464-.5593 3.5921.3421 1.9158 1.5066 1.0613 4.2827-1.3185 4.2827zm180.8782 17.2452c-1.908 0-2.811-2.1541-1.507-3.5944.807-.8913 2.005-.9191 2.946-.0682 1.433 1.2969.503 3.6626-1.439 3.6626zm-47.104 1.1758c1.29-2.0478 2.33-4.0322 2.311-4.4093-.019-.377.086-.6847.234-.6835.331.0031.962 1.0869 4.565 7.8364 3.119 5.8438 5.281 9.3555 6.264 10.1711.366.3038 3.982 1.0132 8.369 1.6418 9.234 1.3236 9.34 1.3463 9.628 2.0973.405 1.0555-.141 1.6712-4.653 5.2484-4.78 3.7896-7.369 6.6829-8.044 8.9877-.366 1.249-.181 2.465 1.364 8.989.982 4.15 1.786 7.95 1.786 8.446 0 .994-.664 1.843-1.442 1.843-.276 0-4.047-1.95-8.381-4.334-4.333-2.384-8.286-4.521-8.785-4.748-.795-.362-1.692.069-7.317 3.514-7.938 4.862-10.756 6.278-11.338 5.695-.306-.306-.146-1.566.573-4.492.55-2.237 1.438-6.616 1.974-9.731l.976-5.665-4.468-4.523c-2.457-2.488-5.564-5.843-6.904-7.4558l-2.437-2.9321 2.904-.6577c3.295-.7462 11.838-1.9044 14.048-1.9044h1.469l2.48-4.6052c1.363-2.5331 3.534-6.2808 4.824-8.3287zm-3.191 9.0146c1.891-3.1257 3.997-6.9655 4.681-8.5333.683-1.5677 1.299-2.7941 1.367-2.7255.069.0686.669 1.7892 1.333 3.8233 1.66 5.0791 4.304 10.522 6.049 12.4538 2.136 2.3646 3.924 2.9427 13.339 4.3148l1.949.2842-2.341 1.8056c-3.467 2.6734-6.369 5.9269-7.511 8.4212-.887 1.9362-.984 2.5522-.789 4.9982.123 1.534.759 4.631 1.414 6.883s1.151 4.123 1.103 4.158c-.047.034-3.257-1.676-7.132-3.801-3.876-2.124-7.255-3.863-7.51-3.863-.256 0-3.786 2.015-7.845 4.477-4.06 2.463-7.423 4.436-7.474 4.385s.429-2.727 1.067-5.947c.639-3.22 1.164-6.416 1.168-7.103.005-.686.18-1.7.39-2.253.243-.639.247-1.3616.012-1.9816-.443-1.1641-7.001-7.7024-10.568-10.5353l-2.531-2.0106 4.883-.292c2.686-.1607 6.374-.5135 8.196-.7839l3.314-.4919zm-350.664.0748c3.569-4.7103 9.751-8.7394 15.745-10.262 4.336-1.1014 10.922-.8819 14.909.4965 10.018 3.4636 18.456 12.0909 20.498 20.958l.0076.0328c.2341 1.0165.3588 1.5579.6503 1.6717.3324.1296.8814-.2964 2.0564-1.208l.0332-.0258c2.4911-1.933 6.5336-3.9134 9.0671-4.4414 3.2942-.687 7.2743-.2245 9.5518 1.1104 3.8579 2.2607 6.9369 7.3598 6.3169 10.4608l-.2289 1.144 1.4623-1.436c.8042-.7902 2.5205-1.9417 3.8139-2.559 1.9472-.9297 2.8623-1.1229 5.3194-1.1229 3.906-.0004 6.1816.8192 8.7229 3.1418 4.3246 3.9526 5.9606 9.8906 4.0091 14.5506-.2297.548.1388.685 2.4833.92 3.0744.309 4.1181.995 3.0845 2.029-1.1338 1.134-19.4463 1.928-57.1297 2.477-14.3351.209-38.4221.583-53.5261.831-21.092.346-28.682.343-32.718-.014-5.166-.456-6.393-.879-5.357-1.842.744-.691 6.828-1.334 15.064-1.594l7.534-.237-1.866-.865c-4.013-1.859-6.654-6.582-6.239-11.158.55-6.0575 5.088-10.4507 11.253-10.8916 3.012-.2156 5.731.5017 7.864 2.0753 1.669 1.2315 1.943 1.2162 1.95-.1094.02-3.634 2.613-10.1005 5.669-14.1328zm109.6179-7.2865c-.4927-.3045-.6322-3.0633-.1775-3.518.6322-.6322 1.8797-.0309 1.9953.9618.1368 1.1754-1.1421 2.9736-1.8178 2.5562zm-154.0999 4.1506c-1.064-.8622-1.148-2.544-.179-3.6148 1.526-1.6861 4.888-.464 4.888 1.7767 0 2.1948-2.88 3.3189-4.709 1.8381zm55.269-1.1672c3.012-1.4431 5.937-2.2473 9.21-2.5322 7.844-.6836 16.8443 3.3185 21.5542 9.584 3.1562 4.1988 4.4622 7.9982 5.2942 15.4015.5444 4.8463.887 5.7783 2.0608 5.6113 1.1896-.169 2.2721-2.49 2.5402-5.4479.203-2.2364.299-2.4171 1.8499-3.4843 4.5406-3.1241 8.6163-4.5116 12.4565-4.2403 5.3974.3809 8.2166 3.0496 8.7288 8.2635.37 3.768 1.1994 4.7 2.7777 3.121.3759-.375.9853-.86 1.3541-1.077.3692-.2172 1.5019-.9062 2.517-1.5313 2.6742-1.6469 4.3842-2.1588 7.2595-2.1737 3.099-.0165 5.7724 1.1186 7.9175 3.3613 2.129 2.2257 2.7529 4.0467 2.9704 8.6697l.189 4.017h-15.0429c-13.6884-.001-39.7537.484-84.5219 1.571l-16.567.402-2.146-1.586c-5.546-4.097-6.351-10.88-1.778-14.9919 4.678-4.2051 9.446-3.2338 13.669 2.7839 1.273 1.812 1.929 2.415 2.632 2.415 1.761 0 2.135-2.427.779-5.0554-.587-1.1386.011-4.793 1.383-8.4435 2.387-6.3513 7.343-11.9697 12.913-14.6377zm287.222 5.9312c-.88-.7956-.933-2.6071-.101-3.4388.805-.8055 2.856-.7878 3.762.0329.893.8078.925 2.3912.068 3.3377-.808.8932-2.778.9293-3.729.0682zm-13.699 52.9394c.026-2.605.18-4.869.342-5.032.367-.371.724 3.822 1.09 12.805.156 3.827.39 6.957.52 6.957s1.856-1.612 3.835-3.582c2.497-2.487 3.788-3.51 4.22-3.344.343.131.623.414.623.627 0 .214-1.123 1.878-2.495 3.697l-2.496 3.309 1.173.235c.645.129 2.958.255 5.141.28 4.782.056 6.269.335 6.437 1.204.205 1.067-1.092 1.438-6.031 1.727-2.568.149-4.981.384-5.362.521-.579.208-.204.818 2.275 3.704 1.655 1.927 2.914 3.741 2.845 4.1-.289 1.499-1.496.723-5.394-3.469-2.225-2.392-4.182-4.207-4.35-4.033-.169.173-.364 4.231-.434 9.017-.092 6.294-.263 8.837-.617 9.191-1.087 1.086-1.391-.349-1.628-7.681l-.234-7.268-5.798 6.269c-5.82 6.294-6.818 7.018-8.019 5.817-.335-.335-.339-.664-.015-1.274.55-1.033 5.658-7.332 9.09-11.208l2.603-2.939-5.593-.294c-8.005-.419-11.882-.996-11.211-1.667.364-.364 8.324-1.338 13.162-1.61 2.64-.149 4.801-.317 4.801-.375s-1.984-2.049-4.409-4.425c-3.114-3.052-4.288-4.444-3.994-4.74.437-.441 4.57 2.177 7.771 4.921l1.612 1.383.246-4.044c.135-2.224.267-6.174.294-8.779zm-52.2791-.713c-1.8119 1.196-3.8895-1.576-2.3414-3.124.8913-.891 2.4235-.805 2.9435.167.591 1.103.34 2.335-.6021 2.957zm-264.1299 24.85c-.991 0-1.35-2.163-.593-3.577.561-1.048 2.087-.834 2.251.317.155 1.085-.951 3.26-1.658 3.26zm96.5945 3.945c-.5479-1.024-.513-2.897.0647-3.475.6659-.666 2.4962-.583 3.2252.146 1.3816 1.382.2273 4.087-1.7445 4.087-.7255 0-1.2871-.275-1.5454-.758zm278.8245 1.413c-1.617-.771-1.835-2.229-.476-3.18 1.125-.788 2.217-.775 3.115.038 1.032.934.901 2.348-.287 3.127-.934.611-1.099.613-2.352.015zm-413.689 2.303c-1.383-1.5-1.543-1.885-1.543-3.71v-2.036l1.216.708c1.863 1.085 5.108 4.781 6.513 7.418 1.376 2.585 2.461 6.232 2.461 8.274v1.298l1.655-.845c1.972-1.006 5.768-1.384 7.954-.792 2.389.646 5.093 2.542 6.614 4.638 2.494 3.433 3.648 8.973 2.618 12.565l-.365 1.271h3.217c3.279 0 4.959.589 4.959 1.738 0 1.719-2.091 1.928-23.614 2.361l-13.228.266v-2.379-2.378h12.096 12.097l.494-2.329c1.101-5.187-.26-9.434-3.823-11.94-3.736-2.625-10.499-1.352-11.262 2.119-.263 1.2-2.26 2.967-2.904 2.569-.219-.136-.206-.791.035-1.663.773-2.798-.509-9.277-2.687-13.581-.528-1.044-1.654-2.651-2.503-3.572zm281.5227-2.45c.8689-1.364 1.4235-2.634 1.2636-2.893-.1772-.286-.0827-.393.2504-.282.294.098 1.6665 2.282 3.0497 4.852 3.2515 6.042 6.4646 11.539 7.3703 12.609.6197.733 1.8253 1.005 8.9617 2.021 4.5346.646 8.5476 1.291 8.9166 1.432.371.143.671.671.671 1.184 0 .711-1.036 1.745-4.49 4.48-6.1794 4.893-8.6058 7.911-8.529 10.608.0164.573.8571 4.538 1.8687 8.812l1.8393 7.771-.8532.691c-.0296.024-.0581.048-.0859.07-.1586.13-.2911.239-.4419.308-.7626.346-1.9918-.332-9.4391-4.445l-.7949-.438-8.1875-4.521-2.1987 1.408c-12.5589 8.042-16.6154 9.923-15.9707 7.407 1.2311-4.8 2.3313-9.918 3.0121-14.011l.8246-4.955-4.5825-4.648c-5.0047-5.077-8.8021-9.538-8.8021-10.341 0-.282.0917-.421.2038-.308.1125.112 1.7437-.12 3.6254-.516 1.882-.395 5.3617-.91 7.7329-1.144.5755-.056 1.1-.106 1.5791-.151 2.9841-.282 4.2051-.397 5.0102-1.036.5575-.442.9157-1.136 1.5219-2.31.1406-.272.2946-.57.4675-.897 2.2344-4.224 4.0471-7.366 6.2067-10.757zm-8.2413 16.498c.7867-.228 7.1191-10.633 8.7524-14.382.6259-1.436 1.2526-2.482 1.3925-2.324.1403.159.7263 1.787 1.302 3.619.5762 1.833 1.9084 5.104 2.9607 7.27 3.099 6.379 5.2516 7.851 12.9178 8.837.3377.043.6549.083.9526.121 2.8236.36 3.8906.496 3.9486.815.035.194-.303.455-.845.875-.094.073-.194.151-.3.234-3.189 2.507-6.7725 6.219-7.7398 8.019-1.8382 3.419-1.7633 6.36.339 13.357.5413 1.801.9109 3.347.8215 3.436-.0889.089-3.3934-1.6-7.3433-3.754l-7.181-3.916-1.206.724c-6.191 3.713-12.386 7.475-13.3098 8.08-1.1123.73-1.126.729-.916-.024 1.148-4.119 3.0281-15.998 2.706-17.098-.294-1.003-8.5235-8.997-11.3442-11.019l-1.7567-1.259 3.8684-.268c4.2878-.298 10.9491-1.045 11.9803-1.343zm-187.6104.435c.125-4.096.31-7.843.411-8.328.278-1.338 1.277-1.079 1.513.391.113.701.485 4.625.829 8.721.343 4.096.711 7.874.818 8.396.176.869.573.57 4.663-3.508 2.458-2.451 4.58-4.346 4.715-4.211.247.247-2.97 4.82-5.754 8.18l-1.493 1.802 6.31.27c6.6516.284 8.3052.661 7.3034 1.662-.3892.39-2.2877.686-6.2184.971l-.074.005c-7.25.526-8.605.624-8.858 1.203-.058.133-.058.292-.058.487v.009c0 .66.782 1.539 2.842 3.192 3.827 3.073 12.4436 11.698 12.4436 12.457 0 .335-.3645.803-.8101 1.042l-.023.012c-.1455.078-.2721.146-.4071.183-.9028.249-2.1834-.873-12.0234-9.496v-.001l-.238-.208-1.667-1.461-.28 4.597c-.413 6.798-.628 7.732-1.775 7.732-.718 0-1.021-.282-1.261-1.176-.413-1.539-.998-6.192-1.319-10.485l-.256-3.43-4.541 4.312c-4.392 4.17-5.741 4.974-6.225 3.712-.254-.661 3.054-4.594 7.309-8.691 1.965-1.891 2.424-2.534 2.006-2.809-.298-.196-2.238-.47-4.311-.607-4.723-.314-10.637-.982-11.412-1.288-.765-.303 3.948-1.158 8.36-1.518l3.461-.282-3.461-3.512c-3.911-3.969-3.64-3.939 2.355.261 2.832 1.984 4.614 2.976 5.344 2.976 1.031 0 1.109-.12 1.324-2.057.126-1.132.332-5.409.458-9.505zm127.0136 3.779c-3.22095 1.468-5.64233-3.536-2.45628-5.076 1.12094-.543 1.23576-.544 2.37668-.024 2.1615.985 2.2105 4.129.0796 5.1zm156.2304 16.328c-.652-.652-.587-1.495.178-2.341.87-.961 2.354-.913 2.893.094.914 1.708-1.698 3.619-3.071 2.247zm-158.72509 23.768c-1.03471-.725-1.16956-2.563-.25555-3.478.77055-.77 2.27362-.796 2.89244-.05.3696.445.3018.941-.3221 2.351-.87286 1.973-1.04962 2.063-2.31479 1.177zm123.64309 4.032c-.776-.257-1.16-1.956-.707-3.128.229-.593.583-1.078.786-1.078.91 0 1.61.538 1.61 1.237 0 1.126-1.15 3.148-1.689 2.969z" fill="#f7efff" fill-rule="evenodd"/></g></svg>