<svg width="222" height="530" viewBox="0 0 222 530" fill="none" xmlns="http://www.w3.org/2000/svg">
<path d="M110.522 529.109L110.619 264.555L110.716 0L118.752 37.4759C123.173 58.0877 126.614 75.1348 126.401 75.3584C126.187 75.582 123.694 74.5809 120.86 73.1352C118.024 71.6883 115.27 70.5055 114.739 70.5055C114.207 70.5055 117.258 74.0791 121.52 78.4454L129.268 86.3852L136.425 121.32C140.361 140.535 143.575 156.98 143.566 157.865C143.557 158.954 141.511 158.439 137.242 156.277C133.773 154.519 130.5 153.08 129.972 153.08C129.443 153.08 132.995 157.095 137.866 162.003L146.72 170.926L153.879 205.83C157.816 225.028 160.89 240.735 160.711 240.735C160.531 240.735 155.994 238.734 150.627 236.289C145.261 233.843 140.512 231.843 140.075 231.843C139.637 231.843 144.956 237.564 151.896 244.556L164.513 257.27L169.823 282.985C172.744 297.128 178.318 324.068 182.21 342.85C186.102 361.631 189.286 377.181 189.286 377.403C189.286 377.625 181.997 374.343 173.088 370.107C164.179 365.873 153.206 360.731 148.701 358.679C138.753 354.15 137.146 352.184 170.014 384.735C183.523 398.114 195.12 410.06 195.787 411.284C196.453 412.507 200.142 428.514 203.984 446.854C207.825 465.194 213.236 490.989 216.007 504.174C218.777 517.361 221.045 528.366 221.045 528.629C221.045 528.893 196.177 529.109 165.784 529.109H110.522Z" fill="#8EB6B1"/>
<path d="M110.522 529.109L110.426 264.555L110.329 0L102.293 37.4759C97.8721 58.0877 94.4307 75.1348 94.6441 75.3584C94.8575 75.582 97.3512 74.5809 100.185 73.1352C103.021 71.6883 105.775 70.5055 106.306 70.5055C106.838 70.5055 103.787 74.0791 99.5249 78.4454L91.7769 86.3852L84.6196 121.32C80.684 140.535 77.47 156.98 77.4789 157.865C77.4878 158.954 79.5343 158.439 83.8027 156.277C87.2721 154.519 90.5446 153.08 91.0731 153.08C91.6016 153.08 88.0496 157.095 83.179 162.003L74.3245 170.926L67.166 205.83C63.2291 225.028 60.1548 240.735 60.3339 240.735C60.5143 240.735 65.0509 238.734 70.4182 236.289C75.7842 233.843 80.5328 231.843 80.9698 231.843C81.4081 231.843 76.0891 237.564 69.1491 244.556L56.5317 257.27L51.2216 282.985C48.301 297.128 42.7266 324.068 38.8355 342.85C34.9431 361.631 31.7595 377.181 31.7595 377.403C31.7595 377.625 39.0476 374.343 47.9567 370.107C56.8658 365.873 67.8393 360.731 72.3441 358.679C82.2923 354.15 83.8993 352.184 51.031 384.735C37.5219 398.114 25.9247 410.06 25.2578 411.284C24.5921 412.507 20.9029 428.514 17.0613 446.854C13.2197 465.194 7.80922 490.989 5.03854 504.174C2.26787 517.361 0.00025177 528.366 0.00025177 528.629C0.00025177 528.893 24.8677 529.109 55.2614 529.109H110.522Z" fill="#C3DCCC"/>
</svg>
